<svg height="48" version="1.1" width="48" xmlns="http://www.w3.org/2000/svg" style="overflow: hidden; position: relative; left: -0.5px;" id="canvas-for-livicon-12"><desc style="-webkit-tap-highlight-color: rgba(0, 0, 0, 0);"></desc><defs style="-webkit-tap-highlight-color: rgba(0, 0, 0, 0);"></defs><path fill="#ffffff" stroke="none" d="M6,24L8,18L10,20L16,14L18,16L21.664,10.75L26,18V24H6ZM9,10C7.343,10,6,11.343,6,13S7.343,16,9,16S12,14.657,12,13S10.657,10,9,10Z" opacity="1" stroke-width="0" transform="matrix(1.5,0,0,1.5,0,0)" style="-webkit-tap-highlight-color: rgba(0, 0, 0, 0); opacity: 1;"></path><path fill="#ffffff" stroke="none" d="M19.2,24C19.249,23.66,19.258,23.602,19.258,23.232C19.258,22.733,19.207,22.253999999999998,19.122,21.814C19.608,22.25,20.076999999999998,22.429,20.524,22.19C21.52,21.671000000000003,21.392,19.682000000000002,20.236,17.742C19.740000000000002,16.906000000000002,19.132,16.229,18.522000000000002,15.756C17.811000000000003,16.241,16.944000000000003,16.537,16.001,16.537C15.055000000000001,16.537,14.188,16.241,13.478000000000002,15.755999999999998C12.868000000000002,16.229,12.261000000000001,16.906,11.763000000000002,17.741999999999997C10.607000000000001,19.682,10.480000000000002,21.671999999999997,11.478000000000002,22.189999999999998C11.924000000000001,22.424999999999997,12.394000000000002,22.249999999999996,12.879000000000001,21.813999999999997C12.794,22.253999999999998,12.744000000000002,22.732999999999997,12.744000000000002,23.231999999999996C12.744000000000002,23.567999999999994,12.761000000000001,23.687999999999995,12.8,23.999999999999996H19.2ZM16,15.779C17.92,15.779,19.477,14.328,19.477,12.539C19.477,10.75,17.92,9.3,16,9.3C14.079,9.3,12.522,10.751000000000001,12.522,12.540000000000001S14.079,15.779,16,15.779ZM22.985,17.833C24.561,17.833,25.839,16.642999999999997,25.839,15.172999999999998C25.839,13.704999999999998,24.563,12.512999999999998,22.985,12.512999999999998S20.13,13.703999999999999,20.13,15.172999999999998C20.13,16.643,21.407,17.833,22.985,17.833ZM25.7,24C25.7,23.588,25.618,23.149,25.548,22.788C25.945999999999998,23.146,26.331999999999997,23.294,26.698999999999998,23.096C27.517999999999997,22.674,27.410999999999998,21.038,26.464,19.446C26.055999999999997,18.759,25.555999999999997,18.204,25.057,17.816000000000003C24.473,18.213,23.759999999999998,18.456000000000003,22.987,18.456000000000003C22.372999999999998,18.456000000000003,21.802,18.301000000000002,21.299,18.039C21.703,18.866,21.951999999999998,19.706000000000003,21.999,20.455000000000002C22.075,21.603,21.689,22.455000000000002,20.918999999999997,22.852C20.752999999999997,22.94,20.572999999999997,22.990000000000002,20.388999999999996,23.021C20.343,23.317,20.3,23.672,20.3,24H25.7ZM9.016,17.833C10.592,17.833,11.870000000000001,16.642999999999997,11.870000000000001,15.172999999999998C11.870000000000001,13.704999999999998,10.592,12.512999999999998,9.016000000000002,12.512999999999998C7.439000000000002,12.512999999999998,6.160000000000002,13.703999999999999,6.160000000000002,15.172999999999998C6.16,16.643,7.438,17.833,9.016,17.833ZM11.7,24C11.7,23.67,11.657,23.315,11.610999999999999,23.019C11.427,22.988999999999997,11.245999999999999,22.939999999999998,11.075,22.848C9.780999999999999,22.177999999999997,9.661,20.179,10.703,18.037C10.200999999999999,18.3,9.629,18.455,9.014999999999999,18.455C8.238,18.455,7.525999999999999,18.212999999999997,6.942999999999999,17.814999999999998C6.442999999999999,18.203,5.943999999999999,18.758,5.533999999999999,19.444999999999997C4.5859999999999985,21.037999999999997,4.481999999999999,22.673999999999996,5.300999999999999,23.094999999999995C5.667999999999999,23.288999999999994,6.052,23.143999999999995,6.449999999999999,22.786999999999995C6.381,23.149,6.4,23.588,6.4,24H11.7Z" opacity="0" stroke-width="0" transform="matrix(1.5,0,0,1.5,0,0)" style="-webkit-tap-highlight-color: rgba(0, 0, 0, 0); opacity: 0;"></path><path fill="#ffffff" stroke="none" d="M5.5,18.791L7.356,17.936L9.975,19.219L13.033,17.188000000000002L7.954999999999999,14.782000000000002L9.758,13.017000000000001L19.067999999999998,14.434000000000001C19.067999999999998,14.434000000000001,22.424999999999997,12.001000000000001,24.773999999999997,12.001000000000001C27.557999999999996,12.001000000000001,26.136999999999997,13.337000000000002,26.136999999999997,13.337000000000002C19.312,20.023,9.759,22,9.759,22C7.467,20.797,5.5,18.791,5.5,18.791Z" opacity="0" stroke-width="0" transform="matrix(1.5,0,0,1.5,-9,0)" style="-webkit-tap-highlight-color: rgba(0, 0, 0, 0); opacity: 0;"></path><path fill="#ffffff" stroke="none" d="M2,7.2V26.8C2,27.463,2.537,28,3.2,28H28.8C29.463,28,30,27.463,30,26.8V7.2C30,6.537,29.463,6,28.8,6H3.2C2.537,6,2,6.537,2,7.2ZM28,26H4V8H28V26Z" stroke-width="0" transform="matrix(1.5,0,0,1.5,0,0)" style="-webkit-tap-highlight-color: rgba(0, 0, 0, 0);"></path></svg>