<svg height="19" version="1.1" width="19" xmlns="http://www.w3.org/2000/svg" style="overflow: hidden; position: relative; left: -0.988274px; top: 0.484372px;" id="canvas-for-livicon-68"><desc style="-webkit-tap-highlight-color: rgba(0, 0, 0, 0);"></desc><defs style="-webkit-tap-highlight-color: rgba(0, 0, 0, 0);"></defs><path fill="#ffffff" stroke="none" d="M18.16,6.956C16.426000000000002,8.690000000000001,16.425,11.104,18.179,12.858C19.241999999999997,13.92,20.695,14.525,22.162999999999997,14.748000000000001L22.195999999999998,25.509C22.197999999999997,25.798000000000002,22.317999999999998,26.079,22.52,26.281C22.971,26.732,23.997,26.733999999999998,24.445,26.285999999999998C24.644000000000002,26.086999999999996,24.764,25.807,24.764,25.519L24.752,23.279999999999998L26.291,23.284999999999997C26.292,23.621999999999996,26.171,24.084999999999997,26.379,24.292999999999996C26.566000000000003,24.479999999999997,28.042,24.482999999999997,28.226000000000003,24.299999999999997C28.458000000000002,24.067999999999998,28.429000000000002,20.906,28.318,20.770999999999997C28.156000000000002,20.566,26.66,20.580999999999996,26.474,20.766C26.266000000000002,20.973,26.285,21.407999999999998,26.287,21.744999999999997L24.747,21.740999999999996L24.727,14.754999999999995C26.196,14.541999999999996,27.645,13.944999999999995,28.7,12.890999999999995C30.442,11.147999999999994,30.428,8.733999999999995,28.681,6.987999999999995C26.044,4.35,20.782,4.334,18.16,6.956ZM27.029,11.475C26.181,12.323,20.695,12.305,19.842,11.453C18.988,10.6,18.985,9.221,19.831999999999997,8.373999999999999C20.679999999999996,7.525999999999999,26.165999999999997,7.542999999999999,27.017999999999997,8.395C27.872,9.248,27.876,10.628,27.029,11.475Z" opacity="0" stroke-width="0" transform="matrix(0.5938,0,0,0.5938,0,0)" style="-webkit-tap-highlight-color: rgba(0, 0, 0, 0); opacity: 0;"></path><path fill="#ffffff" stroke="none" d="M24.472,5.294C22.275000000000002,3.0969999999999995,18.685000000000002,3.1239999999999997,16.454,5.353999999999999C16.201,5.606999999999999,15.976,5.876999999999999,15.780000000000001,6.161999999999999L6.028,6.235L3.604,8.659C3.1590000000000003,9.104000000000001,3.153,9.824000000000002,3.592,10.263000000000002L4.3870000000000005,11.058000000000002L5.195,10.250000000000002L6.86,11.130000000000003L8.402000000000001,10.225000000000003L9.993,11.816000000000003L11.608,10.201000000000002L13.315000000000001,11.677000000000003L15.280000000000001,11.778000000000004C15.547,12.356000000000003,15.918000000000001,12.896000000000004,16.394000000000002,13.372000000000003C18.589000000000002,15.567000000000004,22.179000000000002,15.540000000000003,24.410000000000004,13.309000000000003S26.666,7.489,24.472,5.294ZM7.081,8.124L7.091,6.99L14.312000000000001,6.917L14.304,8.05L7.081,8.124ZM21.62,10.524C20.962,9.866,20.972,8.789,21.64,8.120999999999999C22.310000000000002,7.450999999999999,23.386,7.442999999999999,24.044,8.099999999999998C24.703,8.759999999999998,24.696,9.836999999999998,24.026,10.506999999999998C23.357,11.176,22.28,11.184,21.62,10.524Z" opacity="0" stroke-width="0" transform="matrix(0.5938,0,0,0.5938,0,0)" style="-webkit-tap-highlight-color: rgba(0, 0, 0, 0); opacity: 0;"></path><path fill="#ffffff" stroke="none" d="M29.381,10.583L21.393,2.5949999999999998C20.715,1.9179999999999997,19.508,1.7979999999999996,18.711000000000002,2.3299999999999996L11.158000000000001,7.365C10.361,7.896,10.059000000000001,9.032,10.488000000000001,9.889C10.488000000000001,9.889,12.541,13.983,12.615000000000002,14.113999999999999L2.8740000000000023,23.854999999999997L2,29.976L7,30V28H10V25H14V21H17L17.738,19.287C17.912,19.391,22.087,21.487,22.087,21.487C22.943,21.915999999999997,24.079,21.613999999999997,24.61,20.816999999999997L29.646,13.263999999999996C30.178,12.467,30.058,11.26,29.381,10.583ZM6.115,25.348L4.8790000000000004,24.112L13.392,15.598999999999998L14.628,16.834999999999997L6.115,25.348ZM27.056,13.575L25.819000000000003,14.812C25.479000000000003,15.152,24.923000000000002,15.152,24.583000000000002,14.812L17.165000000000003,7.393C16.824,7.053,16.824,6.497,17.165000000000003,6.157L18.4,4.92C18.74,4.58,19.296,4.58,19.636,4.92L27.055,12.338000000000001C27.396,12.679,27.396,13.235,27.056,13.575Z" stroke-width="0" transform="matrix(0.5938,0,0,0.5938,0,0)" style="-webkit-tap-highlight-color: rgba(0, 0, 0, 0);"></path></svg>