<?xml version="1.0" encoding="utf-8"?>
<!-- Generator: Adobe Illustrator 25.4.1, SVG Export Plug-In . SVG Version: 6.00 Build 0)  -->
<svg version="1.1" id="Слой_1" xmlns="http://www.w3.org/2000/svg" xmlns:xlink="http://www.w3.org/1999/xlink" x="0px" y="0px"
	 viewBox="0 0 45 46" style="enable-background:new 0 0 45 46;" xml:space="preserve">
<style type="text/css">
	.st0{fill:none;stroke:#FF8560;stroke-width:4;stroke-miterlimit:10;}
	.st1{fill:none;stroke:#F15A24;stroke-width:4;stroke-miterlimit:10;}
	.st2{fill:#FF8560;}
	.st3{fill:none;stroke:#FF8560;stroke-miterlimit:10;}
	.st4{fill:none;stroke:#F15A24;stroke-miterlimit:10;}
	
		.st5{clip-path:url(#SVGID_00000020381048792958584950000010774801372686044069_);fill:none;stroke:#F15A24;stroke-width:4;stroke-miterlimit:10;}
	.st6{clip-path:url(#SVGID_00000020381048792958584950000010774801372686044069_);fill:none;stroke:#FF8560;stroke-miterlimit:10;}
	
		.st7{clip-path:url(#SVGID_00000020381048792958584950000010774801372686044069_);fill:#FF8560;stroke:#FF8560;stroke-miterlimit:10;}
	
		.st8{clip-path:url(#SVGID_00000127761276605367866170000000834697706259078059_);fill:none;stroke:#F15A24;stroke-width:4;stroke-miterlimit:10;}
	.st9{clip-path:url(#SVGID_00000127761276605367866170000000834697706259078059_);fill:none;stroke:#FF8560;stroke-miterlimit:10;}
	
		.st10{clip-path:url(#SVGID_00000127761276605367866170000000834697706259078059_);fill:#FF8560;stroke:#FF8560;stroke-miterlimit:10;}
</style>
<path class="st0" d="M27.64,42.18c8.55-2.27,14.86-10.07,14.86-19.33c0-3.81-1.07-7.38-2.92-10.41"/>
<path class="st0" d="M19.49,42.63"/>
<path class="st0" d="M18.24,42.4"/>
<path class="st0" d="M5.41,12.44c-1.85,3.03-2.92,6.6-2.92,10.41c0,9.27,6.3,17.06,14.86,19.33"/>
<path class="st1" d="M8.93,8.15"/>
<path class="st0" d="M9.51,7.64"/>
<path class="st0" d="M34.41,6.79c-3.33-2.47-7.45-3.94-11.92-3.94c-4.47,0-8.59,1.46-11.92,3.94"/>
<g>
	<circle class="st2" cx="22.49" cy="22.85" r="2.5"/>
	<path class="st2" d="M22.49,20.85c1.1,0,2,0.9,2,2s-0.9,2-2,2s-2-0.9-2-2S21.39,20.85,22.49,20.85 M22.49,19.85c-1.66,0-3,1.34-3,3
		s1.34,3,3,3c1.66,0,3-1.34,3-3C25.49,21.19,24.15,19.85,22.49,19.85L22.49,19.85z"/>
</g>
<line class="st3" x1="22.49" y1="42.85" x2="22.49" y2="22.85"/>
<path class="st4" d="M22.49,42.85"/>
<path class="st4" d="M0.23,4.95"/>
<g>
	<circle class="st2" cx="22.49" cy="13.85" r="2.5"/>
	<path class="st2" d="M22.49,11.85c1.1,0,2,0.9,2,2s-0.9,2-2,2s-2-0.9-2-2S21.39,11.85,22.49,11.85 M22.49,10.85c-1.66,0-3,1.34-3,3
		c0,1.66,1.34,3,3,3c1.66,0,3-1.34,3-3C25.49,12.19,24.15,10.85,22.49,10.85L22.49,10.85z"/>
</g>
<path class="st4" d="M6.99,9.35"/>
<line class="st3" x1="25.49" y1="22.85" x2="23.5" y2="42.82"/>
<line class="st3" x1="19.49" y1="22.85" x2="21.49" y2="42.82"/>
<g>
	<g id="_x3C_Зеркальный_повтор_x3E__00000155124014061664831320000011987351117621631401_">
		<g>
			<defs>
				<rect id="SVGID_1_" x="22.2" y="7.85" width="16.79" height="15.34"/>
			</defs>
			<clipPath id="SVGID_00000143606485743762866580000000698916210926250130_">
				<use xlink:href="#SVGID_1_"  style="overflow:visible;"/>
			</clipPath>
			
				<path style="clip-path:url(#SVGID_00000143606485743762866580000000698916210926250130_);fill:none;stroke:#F15A24;stroke-width:4;stroke-miterlimit:10;" d="
				M36.67,8.75"/>
			
				<line style="clip-path:url(#SVGID_00000143606485743762866580000000698916210926250130_);fill:none;stroke:#FF8560;stroke-miterlimit:10;" x1="37.37" y1="9.48" x2="22.99" y2="22.35"/>
			
				<line style="clip-path:url(#SVGID_00000143606485743762866580000000698916210926250130_);fill:none;stroke:#FF8560;stroke-miterlimit:10;" x1="22.49" y1="19.85" x2="36.99" y2="9.35"/>
			
				<line style="clip-path:url(#SVGID_00000143606485743762866580000000698916210926250130_);fill:none;stroke:#FF8560;stroke-miterlimit:10;" x1="25.49" y1="22.85" x2="37.61" y2="9.76"/>
			
				<circle style="clip-path:url(#SVGID_00000143606485743762866580000000698916210926250130_);fill:#FF8560;stroke:#FF8560;stroke-miterlimit:10;" cx="37.49" cy="9.35" r="1"/>
		</g>
	</g>
	<g id="_x3C_Зеркальный_повтор_x3E__00000169529204002126589660000008786217530185857467_">
		<g>
			<defs>
				<rect id="SVGID_00000150786320289394591110000014090322996517110186_" x="5.97" y="7.85" width="16.79" height="15.34"/>
			</defs>
			<clipPath id="SVGID_00000114070134932354398280000010775968253633793711_">
				<use xlink:href="#SVGID_00000150786320289394591110000014090322996517110186_"  style="overflow:visible;"/>
			</clipPath>
			
				<path style="clip-path:url(#SVGID_00000114070134932354398280000010775968253633793711_);fill:none;stroke:#F15A24;stroke-width:4;stroke-miterlimit:10;" d="
				M8.29,8.75"/>
			
				<line style="clip-path:url(#SVGID_00000114070134932354398280000010775968253633793711_);fill:none;stroke:#FF8560;stroke-miterlimit:10;" x1="7.6" y1="9.48" x2="21.97" y2="22.35"/>
			
				<line style="clip-path:url(#SVGID_00000114070134932354398280000010775968253633793711_);fill:none;stroke:#FF8560;stroke-miterlimit:10;" x1="22.47" y1="19.85" x2="7.97" y2="9.35"/>
			
				<line style="clip-path:url(#SVGID_00000114070134932354398280000010775968253633793711_);fill:none;stroke:#FF8560;stroke-miterlimit:10;" x1="19.47" y1="22.85" x2="7.35" y2="9.76"/>
			
				<circle style="clip-path:url(#SVGID_00000114070134932354398280000010775968253633793711_);fill:#FF8560;stroke:#FF8560;stroke-miterlimit:10;" cx="7.47" cy="9.35" r="1"/>
		</g>
	</g>
</g>
<g>
	<circle class="st2" cx="22.49" cy="42.85" r="2"/>
	<path class="st2" d="M22.49,41.35c0.83,0,1.5,0.67,1.5,1.5s-0.67,1.5-1.5,1.5s-1.5-0.67-1.5-1.5S21.67,41.35,22.49,41.35
		 M22.49,40.35c-1.38,0-2.5,1.12-2.5,2.5s1.12,2.5,2.5,2.5s2.5-1.12,2.5-2.5S23.87,40.35,22.49,40.35L22.49,40.35z"/>
</g>
<g>
	<g>
		<path class="st2" d="M23.76,31.74c1.93,0,1.93-3,0-3C21.83,28.74,21.83,31.74,23.76,31.74L23.76,31.74z"/>
	</g>
</g>
<g>
	<g>
		<path class="st2" d="M23.67,28.5c1.93,0,1.93-3,0-3C21.74,25.5,21.74,28.5,23.67,28.5L23.67,28.5z"/>
	</g>
</g>
<g>
	<g>
		<path class="st2" d="M24.21,27.24c1.93,0,1.93-3,0-3C22.28,24.24,22.28,27.24,24.21,27.24L24.21,27.24z"/>
	</g>
</g>
<g>
	<g>
		<path class="st2" d="M23.67,29.76c1.93,0,1.93-3,0-3C21.74,26.76,21.74,29.76,23.67,29.76L23.67,29.76z"/>
	</g>
</g>
<g>
	<g>
		<path class="st2" d="M23.49,33.09c1.93,0,1.93-3,0-3C21.56,30.09,21.56,33.09,23.49,33.09L23.49,33.09z"/>
	</g>
</g>
<g>
	<g>
		<path class="st2" d="M23.49,34.53c1.93,0,1.93-3,0-3C21.56,31.53,21.56,34.53,23.49,34.53L23.49,34.53z"/>
	</g>
</g>
<g>
	<g>
		<path class="st2" d="M23.31,36.6c1.93,0,1.93-3,0-3C21.38,33.6,21.38,36.6,23.31,36.6L23.31,36.6z"/>
	</g>
</g>
<g>
	<g>
		<path class="st2" d="M21.24,37.84c0.03,0.15,0.06,0.3,0.09,0.45c0.05,0.2,0.14,0.37,0.27,0.51c0.11,0.16,0.25,0.29,0.42,0.39
			c0.17,0.11,0.36,0.17,0.56,0.18c0.2,0.04,0.4,0.04,0.6-0.03c0.12-0.05,0.24-0.1,0.36-0.15c0.23-0.13,0.4-0.31,0.54-0.54
			c0.05-0.12,0.1-0.24,0.15-0.36c0.07-0.27,0.07-0.53,0-0.8c-0.03-0.15-0.06-0.3-0.09-0.45c-0.05-0.2-0.14-0.37-0.27-0.51
			c-0.11-0.16-0.25-0.29-0.42-0.39c-0.17-0.11-0.36-0.17-0.56-0.18c-0.2-0.04-0.4-0.04-0.6,0.03c-0.12,0.05-0.24,0.1-0.36,0.15
			c-0.23,0.13-0.4,0.31-0.54,0.54c-0.05,0.12-0.1,0.24-0.15,0.36C21.17,37.31,21.17,37.57,21.24,37.84L21.24,37.84z"/>
	</g>
</g>
<g>
	<g>
		<path class="st2" d="M22.77,41.19c1.93,0,1.93-3,0-3C20.84,38.19,20.84,41.19,22.77,41.19L22.77,41.19z"/>
	</g>
</g>
<g>
	<g>
		<path class="st2" d="M22.68,37.5c1.93,0,1.93-3,0-3C20.75,34.5,20.75,37.5,22.68,37.5L22.68,37.5z"/>
	</g>
</g>
<g>
	<g>
		<path class="st2" d="M22.86,35.52c1.93,0,1.93-3,0-3C20.93,32.52,20.93,35.52,22.86,35.52L22.86,35.52z"/>
	</g>
</g>
<g>
	<g>
		<path class="st2" d="M23.46,31.77c0-0.09,0-0.18,0-0.27c0.01-0.21-0.04-0.4-0.13-0.58c-0.06-0.19-0.16-0.35-0.31-0.48
			c-0.14-0.15-0.3-0.25-0.48-0.31c-0.18-0.09-0.37-0.14-0.58-0.13c-0.13,0.02-0.27,0.04-0.4,0.05c-0.25,0.07-0.47,0.2-0.66,0.39
			c-0.08,0.1-0.16,0.2-0.23,0.3c-0.14,0.23-0.2,0.49-0.2,0.76c0,0.09,0,0.18,0,0.27c-0.01,0.21,0.04,0.4,0.13,0.58
			c0.06,0.19,0.16,0.35,0.31,0.48c0.14,0.15,0.3,0.25,0.48,0.31c0.18,0.09,0.37,0.14,0.58,0.13c0.13-0.02,0.27-0.04,0.4-0.05
			c0.25-0.07,0.47-0.2,0.66-0.39c0.08-0.1,0.16-0.2,0.23-0.3C23.4,32.29,23.46,32.04,23.46,31.77L23.46,31.77z"/>
	</g>
</g>
<g>
	<g>
		<path class="st2" d="M21.24,27.78c1.93,0,1.93-3,0-3C19.31,24.78,19.31,27.78,21.24,27.78L21.24,27.78z"/>
	</g>
</g>
<g>
	<g>
		<path class="st2" d="M20.79,26.79c1.93,0,1.93-3,0-3C18.86,23.79,18.86,26.79,20.79,26.79L20.79,26.79z"/>
	</g>
</g>
<g>
	<g>
		<path class="st2" d="M19.92,28.08c0,0.03,0,0.06,0,0.09c-0.01,0.21,0.04,0.4,0.13,0.58c0.06,0.19,0.16,0.35,0.31,0.48
			c0.14,0.15,0.3,0.25,0.48,0.31c0.18,0.09,0.37,0.14,0.58,0.13c0.13-0.02,0.27-0.04,0.4-0.05c0.25-0.07,0.47-0.2,0.66-0.39
			c0.08-0.1,0.16-0.2,0.23-0.3c0.14-0.23,0.2-0.49,0.2-0.76c0-0.03,0-0.06,0-0.09c0.01-0.21-0.04-0.4-0.13-0.58
			c-0.06-0.19-0.16-0.35-0.31-0.48c-0.14-0.15-0.3-0.25-0.48-0.31c-0.18-0.09-0.37-0.14-0.58-0.13c-0.13,0.02-0.27,0.04-0.4,0.05
			c-0.25,0.07-0.47,0.2-0.66,0.39c-0.08,0.1-0.16,0.2-0.23,0.3C19.99,27.56,19.92,27.81,19.92,28.08L19.92,28.08z"/>
	</g>
</g>
<g>
	<g>
		<path class="st2" d="M21.42,31.65c1.93,0,1.93-3,0-3C19.49,28.65,19.49,31.65,21.42,31.65L21.42,31.65z"/>
	</g>
</g>
<g>
	<g>
		<path class="st2" d="M21.96,36.42c1.93,0,1.93-3,0-3C20.03,33.42,20.03,36.42,21.96,36.42L21.96,36.42z"/>
	</g>
</g>
<g>
	<g>
		<path class="st2" d="M21.69,34.98c1.93,0,1.93-3,0-3C19.76,31.98,19.76,34.98,21.69,34.98L21.69,34.98z"/>
	</g>
</g>
<g>
	<g>
		<path class="st2" d="M25.83,21.48c1.93,0,1.93-3,0-3C23.9,18.48,23.9,21.48,25.83,21.48L25.83,21.48z"/>
	</g>
</g>
<g>
	<g>
		<path class="st2" d="M27.9,19.95c1.93,0,1.93-3,0-3C25.97,16.95,25.97,19.95,27.9,19.95L27.9,19.95z"/>
	</g>
</g>
<g>
	<g>
		<path class="st2" d="M29.97,17.61c1.93,0,1.93-3,0-3C28.04,14.61,28.04,17.61,29.97,17.61L29.97,17.61z"/>
	</g>
</g>
<g>
	<g>
		<path class="st2" d="M31.5,16.44c1.93,0,1.93-3,0-3C29.57,13.44,29.57,16.44,31.5,16.44L31.5,16.44z"/>
	</g>
</g>
<g>
	<g>
		<path class="st2" d="M28.8,18.87c1.93,0,1.93-3,0-3C26.87,15.87,26.87,18.87,28.8,18.87L28.8,18.87z"/>
	</g>
</g>
<g>
	<g>
		<path class="st2" d="M26.55,20.58c1.93,0,1.93-3,0-3C24.62,17.58,24.62,20.58,26.55,20.58L26.55,20.58z"/>
	</g>
</g>
<g>
	<g>
		<path class="st2" d="M24.84,21.48c1.93,0,1.93-3,0-3C22.91,18.48,22.91,21.48,24.84,21.48L24.84,21.48z"/>
	</g>
</g>
<g>
	<g>
		<path class="st2" d="M25.47,22.83c1.93,0,1.93-3,0-3C23.54,19.83,23.54,22.83,25.47,22.83L25.47,22.83z"/>
	</g>
</g>
<g>
	<g>
		<path class="st2" d="M27.36,19.14c1.93,0,1.93-3,0-3C25.43,16.14,25.43,19.14,27.36,19.14L27.36,19.14z"/>
	</g>
</g>
<g>
	<g>
		<path class="st2" d="M24.21,22.29c1.93,0,1.93-3,0-3C22.28,19.29,22.28,22.29,24.21,22.29L24.21,22.29z"/>
	</g>
</g>
<g>
	<g>
		<path class="st2" d="M19.98,22.02c1.93,0,1.93-3,0-3C18.05,19.02,18.05,22.02,19.98,22.02L19.98,22.02z"/>
	</g>
</g>
<g>
	<g>
		<path class="st2" d="M20.88,21.48c1.93,0,1.93-3,0-3C18.95,18.48,18.95,21.48,20.88,21.48L20.88,21.48z"/>
	</g>
</g>
<g>
	<g>
		<path class="st2" d="M19.62,22.38c1.93,0,1.93-3,0-3C17.69,19.38,17.69,22.38,19.62,22.38L19.62,22.38z"/>
	</g>
</g>
<g>
	<g>
		<path class="st2" d="M19.26,21.39c1.93,0,1.93-3,0-3C17.33,18.39,17.33,21.39,19.26,21.39L19.26,21.39z"/>
	</g>
</g>
<g>
	<g>
		<path class="st2" d="M18.09,20.22c1.93,0,1.93-3,0-3C16.16,17.22,16.16,20.22,18.09,20.22L18.09,20.22z"/>
	</g>
</g>
<g>
	<g>
		<path class="st2" d="M16.74,18.87c1.93,0,1.93-3,0-3C14.81,15.87,14.81,18.87,16.74,18.87L16.74,18.87z"/>
	</g>
</g>
<g>
	<g>
		<path class="st2" d="M15.66,18.06c1.93,0,1.93-3,0-3C13.73,15.06,13.73,18.06,15.66,18.06L15.66,18.06z"/>
	</g>
</g>
<g>
	<g>
		<path class="st2" d="M14.13,16.89c1.93,0,1.93-3,0-3C12.2,13.89,12.2,16.89,14.13,16.89L14.13,16.89z"/>
	</g>
</g>
<g>
	<g>
		<path class="st2" d="M13.41,16.17c1.93,0,1.93-3,0-3C11.48,13.17,11.48,16.17,13.41,16.17L13.41,16.17z"/>
	</g>
</g>
<g>
	<g>
		<path class="st2" d="M17.55,20.22c1.93,0,1.93-3,0-3C15.62,17.22,15.62,20.22,17.55,20.22L17.55,20.22z"/>
	</g>
</g>
<g>
	<g>
		<path class="st2" d="M18.18,21.12c1.93,0,1.93-3,0-3C16.25,18.12,16.25,21.12,18.18,21.12L18.18,21.12z"/>
	</g>
</g>
<g>
	<g>
		<path class="st2" d="M19.02,20.33c1.93,0,1.93-3,0-3C17.09,17.33,17.09,20.33,19.02,20.33L19.02,20.33z"/>
	</g>
</g>
</svg>
