<svg height="28" version="1.1" width="28" xmlns="http://www.w3.org/2000/svg" style="overflow: hidden; position: relative; left: -0.671875px;" id="canvas-for-livicon-2"><desc style="-webkit-tap-highlight-color: rgba(0, 0, 0, 0);"></desc><defs style="-webkit-tap-highlight-color: rgba(0, 0, 0, 0);"></defs><path fill="#ffffff" stroke="none" d="M10,6L10,6L10,6L10,6L10,6L10,6L10,6L10,6L10,6L10,6L10,6L10,6L10,6L10,6L10,6L10,6L10,6L10,6L10,6L10,6L10,6L10,6L10,6ZM10,6L10,6L10,6L10,6L10,6ZM10,6L10,6L10,6L10,6L10,6ZM10,6L10,6L10,6L10,6L10,6ZM10,6L10,6L10,6L10,6L10,6ZM10,6L10,6L10,6L10,6L10,6Z" stroke-width="0" transform="matrix(0.875,0,0,0.875,0,0)" style="-webkit-tap-highlight-color: rgba(0, 0, 0, 0);"></path><path fill="#ffffff" stroke="none" d="M28,2H6.9C6.348000000000001,2,5.9,2.448,5.9,3V6H4.9C4.347,6,3.9000000000000004,6.447,3.9000000000000004,7S4.347,8,4.9,8H5.9V14H4.9C4.347,14,3.9000000000000004,14.447,3.9000000000000004,15C3.9000000000000004,15.552,4.347,16,4.9,16H5.9V22H4.9C4.347,22,3.9000000000000004,22.447,3.9000000000000004,23S4.347,24,4.9,24H5.9V27.1C6,30,6,30,8.7,30H28C28.553,30,29,29.553,29,29V3C29,2.448,28.553,2,28,2ZM26,28H9C8.448,28,8,27.553,8,27V5C8,4.448,8.448,4,9,4H25.9C26.453,4,27,4.548,27,5.1V27.1C27,27.652,26.553,28,26,28Z" opacity="0" stroke-width="0" transform="matrix(0.875,0,0,0.875,0,0)" style="-webkit-tap-highlight-color: rgba(0, 0, 0, 0); opacity: 0;"></path><path fill="#ffffff" stroke="none" d="M4.9,6H6.9C7.453,6,7.9,6.447,7.9,7S7.453,8,6.9,8H4.9C4.347,8,3.9000000000000004,7.553,3.9000000000000004,7S4.348,6,4.9,6ZM3.9,15C3.9,15.552,4.3469999999999995,16,4.9,16H6.9C7.453,16,7.9,15.552,7.9,15C7.9,14.447,7.453,14,6.9,14H4.9C4.348,14,3.9,14.447,3.9,15ZM3.9,23C3.9,23.553,4.3469999999999995,24,4.9,24H6.9C7.453,24,7.9,23.553,7.9,23S7.453,22,6.9,22H4.9C4.348,22,3.9,22.447,3.9,23ZM29,4V29.063C29,30,28,30,28,30H8.838C6.7,30,5.9,27,5.9,27V25H7C9.063,25,8.9,23,8.9,23C8.94,20.9,7,20.9,7,20.9H5.9V17H7C8.875,17,8.9,15,8.9,15C8.9,13,7,13,7,13H5.9V9.1H7C8.9,9.1,8.9,7,8.9,7C8.9,4.9,7,4.9,7,4.9H5.9V3C5.9,2.3,6.300000000000001,2,7,2H24.9C25.453,2,25.9,2.447,25.9,3H28C29,3,29,4,29,4ZM10,20H24V8H10V20ZM27,4.2L26,3.9000000000000004V26C26,26.553,25.553,27,25,27H7.9C7.9,27.9,9,28,9,28H26C26.9,28,27,27,27,27V4.2ZM18.778,15.769C18.383,15.607,18.224999999999998,15.156,18.224999999999998,15.156S18.046999999999997,15.26,18.046999999999997,14.974C18.046999999999997,14.687,18.224999999999998,15.156,18.401999999999997,14.056000000000001C18.401999999999997,14.056000000000001,18.895999999999997,13.911000000000001,18.798,12.728000000000002H18.680999999999997C18.680999999999997,12.728000000000002,18.977999999999998,11.462000000000002,18.680999999999997,11.035000000000002C18.381999999999998,10.605000000000002,18.278999999999996,10.264000000000001,17.610999999999997,10.115000000000002C16.997999999999998,9.979000000000003,17.196999999999996,9.992000000000003,16.72,10.013000000000002C16.244999999999997,10.034000000000002,15.848999999999998,10.259000000000002,15.848999999999998,10.400000000000002C15.848999999999998,10.400000000000002,15.551999999999998,10.421000000000003,15.432999999999998,10.545000000000002C15.313999999999998,10.666000000000002,15.116999999999997,11.238000000000001,15.116999999999997,11.381000000000002C15.116999999999997,11.526000000000002,15.249999999999996,12.483000000000002,15.348999999999997,12.688000000000002L15.196999999999997,12.729000000000003C15.096999999999998,13.913000000000002,15.591999999999997,14.057000000000002,15.591999999999997,14.057000000000002C15.771999999999997,15.157000000000002,15.948999999999996,14.688000000000002,15.948999999999996,14.975000000000001C15.948999999999996,15.260000000000002,15.770999999999995,15.157000000000002,15.770999999999995,15.157000000000002S15.612999999999996,15.608000000000002,15.215999999999996,15.770000000000001S12.621999999999996,16.809,12.442999999999996,16.995C12.267,17.178,12.288,18,12.288,18H21.712C21.712,18,21.732,17.178,21.552,16.994C21.372,16.808,19.175,15.931,18.778,15.769Z" opacity="1" stroke-width="0" transform="matrix(0.875,0,0,0.875,0,0)" style="-webkit-tap-highlight-color: rgba(0, 0, 0, 0); opacity: 1;"></path></svg>