<svg height="22" version="1.1" width="22" xmlns="http://www.w3.org/2000/svg" style="overflow: hidden; position: relative; left: -0.9375px; top: -0.333333px;" id="canvas-for-livicon-67"><desc style="-webkit-tap-highlight-color: rgba(0, 0, 0, 0);"></desc><defs style="-webkit-tap-highlight-color: rgba(0, 0, 0, 0);"></defs><path fill="#ffffff" stroke="none" d="M6.976,24.759L11.205,22.823C11.613,30.891,2.072000000000001,29.648,2.072000000000001,29.648S1.072000000000001,19.563,8.998000000000001,20.621000000000002L6.976,24.759ZM20.827,17.824C20.827,17.824,21.727,24.428,13.389000000000003,26.705000000000002L15.108000000000002,21.25C15.108000000000002,21.25,10.100000000000001,21.796,10.099000000000002,21.8L10.693000000000001,16.847L5.217000000000001,18.556C7.504000000000001,10.245000000000001,14.124000000000002,11.142000000000001,14.124000000000002,11.142000000000001C17.148000000000003,6.9860000000000015,21.692,4.278000000000001,24.814,3.062000000000001C25.81,2.6740000000000013,28.103,2.0930000000000013,28.95,2.0230000000000015C30,1.938,30.1,2.038,29.995,3.065C29.9,3.993,29.33,6.183,28.927,7.163C27.658,10.258,24.993,14.809,20.827,17.824ZM21.499,12.895C22.834,12.895999999999999,23.915999999999997,11.814,23.915,10.479C23.912,9.142999999999999,22.826999999999998,8.058,21.491999999999997,8.056999999999999C20.154999999999998,8.053999999999998,19.072999999999997,9.136,19.076999999999998,10.472999999999999C19.077,11.808,20.162,12.893,21.499,12.895Z" stroke-width="0" transform="matrix(0.6875,0,0,0.6875,0,0)" style="-webkit-tap-highlight-color: rgba(0, 0, 0, 0);"></path></svg>