<svg viewBox="0 0 24 24" fill="none" xmlns="http://www.w3.org/2000/svg">
<path fill-rule="evenodd" clip-rule="evenodd" d="M4.7015 6.304C4.15545 7.31394 4.11683 7.94568 4.0396 9.20915C4.01362 9.63411 3.99854 10.0675 3.99854 10.5008C3.99854 10.9342 4.01362 11.3676 4.0396 11.7925C4.11683 13.056 4.15545 13.6877 4.7015 14.6977C5.05931 15.3595 6.14076 16.4409 6.80253 16.7987C7.81247 17.3448 8.44421 17.3834 9.70769 17.4606C10.1326 17.4866 10.566 17.5017 10.9994 17.5017C11.4327 17.5017 11.8661 17.4866 12.2911 17.4606C13.5545 17.3834 14.1863 17.3448 15.1962 16.7987C15.3218 16.7308 15.4624 16.6369 15.6104 16.5247L19.2929 20.2073C19.6834 20.5978 20.3166 20.5978 20.7071 20.2073C21.0976 19.8167 21.0976 19.1836 20.7071 18.793L17.0244 15.1103C17.1361 14.9629 17.2296 14.8228 17.2972 14.6977C17.8433 13.6877 17.8819 13.056 17.9591 11.7925C17.9851 11.3676 18.0002 10.9342 18.0002 10.5008C18.0002 10.0675 17.9851 9.63411 17.9591 9.20915C17.8819 7.94568 17.8433 7.31394 17.2972 6.304C16.9394 5.64222 15.858 4.56078 15.1962 4.20297C14.1863 3.65691 13.5545 3.6183 12.2911 3.54107C11.8661 3.51509 11.4327 3.5 10.9994 3.5C10.566 3.5 10.1326 3.51509 9.70769 3.54107C8.44421 3.6183 7.81248 3.65691 6.80253 4.20297C6.14076 4.56078 5.05931 5.64222 4.7015 6.304ZM9.82971 5.53734C10.2196 5.51351 10.6119 5.5 10.9994 5.5C11.3868 5.5 11.7792 5.51351 12.169 5.53734C13.41 5.61319 13.6524 5.64186 14.245 5.96226C14.245 5.96226 14.2514 5.9658 14.2646 5.97405C14.2782 5.98255 14.2966 5.99459 14.3198 6.01072C14.3669 6.04345 14.4256 6.08744 14.4945 6.14323C14.6334 6.25576 14.7901 6.39735 14.9465 6.55371C15.1029 6.71007 15.2445 6.86682 15.357 7.00574C15.4128 7.0746 15.4568 7.13335 15.4895 7.18042C15.5056 7.20361 15.5177 7.22201 15.5262 7.2356C15.5348 7.24939 15.5379 7.25522 15.5379 7.25522C15.8584 7.84784 15.887 8.09022 15.9629 9.33118C15.9867 9.72105 16.0002 10.1134 16.0002 10.5008C16.0002 10.8883 15.9867 11.2806 15.9629 11.6705C15.887 12.9115 15.8584 13.1538 15.5379 13.7465C15.5379 13.7465 15.5348 13.7523 15.5262 13.7661C15.5177 13.7797 15.5056 13.7981 15.4895 13.8213C15.4568 13.8683 15.4128 13.9271 15.357 13.9959C15.2445 14.1349 15.1029 14.2916 14.9465 14.448C14.7901 14.6043 14.6334 14.7459 14.4945 14.8585C14.4256 14.9142 14.3669 14.9582 14.3198 14.991C14.2966 15.0071 14.2782 15.0191 14.2646 15.0276C14.2508 15.0363 14.245 15.0394 14.245 15.0394C13.6524 15.3598 13.41 15.3885 12.169 15.4643C11.7792 15.4882 11.3868 15.5017 10.9994 15.5017C10.6119 15.5017 10.2196 15.4882 9.82971 15.4643C8.58875 15.3885 8.34638 15.3598 7.75375 15.0394C7.75375 15.0394 7.74793 15.0363 7.73414 15.0276C7.72054 15.0191 7.70214 15.0071 7.67895 14.991C7.63188 14.9582 7.57314 14.9142 7.50427 14.8585C7.36536 14.7459 7.2086 14.6043 7.05224 14.448C6.89588 14.2916 6.75429 14.1349 6.64176 13.9959C6.58598 13.9271 6.54199 13.8683 6.50925 13.8213C6.49312 13.7981 6.48108 13.7797 6.47258 13.7661C6.46434 13.7529 6.46079 13.7464 6.46079 13.7464C6.14039 13.1538 6.11173 12.9114 6.03587 11.6705C6.01204 11.2806 5.99854 10.8883 5.99854 10.5008C5.99854 10.1134 6.01204 9.72105 6.03587 9.33118C6.11173 8.09022 6.14037 7.84789 6.46079 7.25526C6.46079 7.25526 6.46434 7.24879 6.47258 7.2356C6.48108 7.22201 6.49312 7.20361 6.50925 7.18042C6.54199 7.13335 6.58598 7.0746 6.64176 7.00574C6.75429 6.86682 6.89588 6.71007 7.05224 6.55371C7.2086 6.39735 7.36536 6.25576 7.50427 6.14323C7.57314 6.08744 7.63188 6.04345 7.67895 6.01072C7.70214 5.99459 7.72054 5.98255 7.73414 5.97405C7.74793 5.96543 7.75375 5.96228 7.75375 5.96228C8.34638 5.64186 8.58875 5.61319 9.82971 5.53734Z" fill="#BBC1C7"/>
</svg>
