<svg height="32" version="1.1" width="32" xmlns="http://www.w3.org/2000/svg" style="overflow: hidden; position: relative; left: -0.855462px; top: -0.570292px;" id="canvas-for-livicon-73"><desc style="-webkit-tap-highlight-color: rgba(0, 0, 0, 0);"></desc><defs style="-webkit-tap-highlight-color: rgba(0, 0, 0, 0);"></defs><path fill="#ffffff" stroke="none" d="M11.132,21L11.132,21L11.132,21L11.132,21L11.132,21L11.132,21L11.132,21L11.132,21ZM11.132,21L11.132,21L11.132,21L11.132,21L11.132,21L11.132,21ZM12.466,10.496L12.466,10.496L12.466,10.496L12.466,10.496L12.466,10.496L12.466,10.496L12.466,10.496L12.466,10.496L12.466,10.496ZM12.466,10.496L12.466,10.496L12.466,10.496L12.466,10.496L12.466,10.496L12.466,10.496ZM27.84,13.157L27.84,13.157L27.84,13.157L27.84,13.157L27.84,13.157L27.84,13.157L27.84,13.157L27.84,13.157L27.84,13.157L27.84,13.157L27.84,13.157L27.84,13.157L27.84,13.157Z" stroke-width="0" transform="matrix(1,0,0,1,0,0)" style="-webkit-tap-highlight-color: rgba(0, 0, 0, 0);"></path><path fill="#ffffff" stroke="none" d="M25.354,4.1L27.9,6.646C28.363,7.112,28.366999999999997,7.875,27.9,8.342L25.919999999999998,10.322000000000001L21.678,6.08L23.658,4.1C24.126,3.631,24.886,3.631,25.354,4.1ZM4.707,25.879C4.707,25.879,4.707,23.051000000000002,7.535,20.223000000000003L20.971,6.787L25.213,11.030000000000001L11.778,24.465C8.950000000000001,27.293,6.121,27.293,6.121,27.293S4.413,28.413,4,28C3.558,27.559,4.707,25.879,4.707,25.879ZM9.091,23.191L21.819,10.463999999999999L20.97,9.614999999999998L8.242,22.344L9.091,23.191Z" transform="matrix(1,0,0,1,0,0)" stroke-width="0" style="-webkit-tap-highlight-color: rgba(0, 0, 0, 0);"></path></svg>