<svg width="24" height="24" viewBox="0 0 24 24" fill="none" xmlns="http://www.w3.org/2000/svg">
<path fill-rule="evenodd" clip-rule="evenodd" d="M21.9776 18.6668C23.0173 17.1109 23.6748 15.3394 23.9064 13.4961C24.0097 12.6742 23.3284 12 22.5 12C21.6716 12 21.0131 12.6766 20.8766 13.4937C20.1651 17.7534 16.4617 21 12 21C7.02944 21 3 16.9706 3 12C3 7.53831 6.24662 3.83491 10.5063 3.12339C11.3234 2.9869 12 2.32843 12 1.5C12 0.671573 11.3258 -0.0096629 10.5039 0.0936235C8.66064 0.32524 6.88913 0.982696 5.33316 2.02236C3.35977 3.34094 1.8217 5.21509 0.913446 7.4078C0.00519403 9.60051 -0.232446 12.0133 0.230577 14.3411C0.693599 16.6689 1.83649 18.8071 3.51472 20.4853C5.19295 22.1635 7.33114 23.3064 9.65892 23.7694C11.9867 24.2324 14.3995 23.9948 16.5922 23.0866C18.7849 22.1783 20.6591 20.6402 21.9776 18.6668Z" fill="currentColor"/>
</svg>
