<svg viewBox="0 0 18 18" fill="none" xmlns="http://www.w3.org/2000/svg">
<path fill-rule="evenodd" clip-rule="evenodd" d="M1.68597 1.68597C0.373095 2.99884 0.275748 4.30684 0.0810531 6.92282C0.0305833 7.60095 0 8.30048 0 9C0 9.69952 0.0305834 10.399 0.0810532 11.0772C0.275748 13.6932 0.373095 15.0012 1.68597 16.314C2.99884 17.6269 4.30684 17.7243 6.92282 17.9189C7.60095 17.9694 8.30048 18 9 18C9.69952 18 10.399 17.9694 11.0772 17.9189C13.6932 17.7243 15.0012 17.6269 16.314 16.314C17.6269 15.0012 17.7243 13.6932 17.9189 11.0772C17.9694 10.399 18 9.69952 18 9C18 8.30048 17.9694 7.60095 17.9189 6.92282C17.7243 4.30684 17.6269 2.99884 16.314 1.68597C15.0012 0.373095 13.6932 0.275748 11.0772 0.0810531C10.399 0.0305833 9.69952 0 9 0C8.30048 0 7.60095 0.0305834 6.92282 0.0810532C4.30684 0.275748 2.99884 0.373095 1.68597 1.68597ZM13.207 7.20711C13.5975 6.81658 13.5975 6.18342 13.207 5.79289C12.8165 5.40237 12.1833 5.40237 11.7928 5.79289L7.99989 9.58579L6.707 8.29289C6.31648 7.90237 5.68331 7.90237 5.29279 8.29289C4.90226 8.68342 4.90226 9.31658 5.29279 9.70711L7.29279 11.7071C7.68331 12.0976 8.31648 12.0976 8.707 11.7071L13.207 7.20711Z" fill="#26CD58"/>
</svg>
