<?xml version="1.0" encoding="utf-8"?>
<!-- Generator: Adobe Illustrator 25.4.webpack.config.js, SVG Export Plug-In . SVG Version: 6.00 Build 0)  -->
<svg version="1.1" id="Слой_1" xmlns="http://www.w3.org/2000/svg" xmlns:xlink="http://www.w3.org/1999/xlink" x="0px" y="0px"
	 viewBox="0 0 45 45" style="enable-background:new 0 0 45 45;" xml:space="preserve">
<style type="text/css">
	.st0{fill:none;stroke:#FF8560;stroke-width:4;stroke-miterlimit:10;}
	.st1{fill:none;stroke:#F15A24;stroke-width:4;stroke-miterlimit:10;}
	.st2{fill:#FFFFFF;}
	.st3{fill:none;stroke:#FFFFFF;stroke-miterlimit:10;}
	.st4{fill:none;stroke:#F15A24;stroke-miterlimit:10;}
	
		.st5{clip-path:url(#SVGID_00000028321713380024738260000004070657590979179921_);fill:none;stroke:#F15A24;stroke-width:4;stroke-miterlimit:10;}
	.st6{clip-path:url(#SVGID_00000028321713380024738260000004070657590979179921_);fill:none;stroke:#FFFFFF;stroke-miterlimit:10;}
	
		.st7{clip-path:url(#SVGID_00000028321713380024738260000004070657590979179921_);fill:#FFFFFF;stroke:#FFFFFF;stroke-miterlimit:10;}
	
		.st8{clip-path:url(#SVGID_00000053516460092399587800000008690386303385186495_);fill:none;stroke:#F15A24;stroke-width:4;stroke-miterlimit:10;}
	.st9{clip-path:url(#SVGID_00000053516460092399587800000008690386303385186495_);fill:none;stroke:#FFFFFF;stroke-miterlimit:10;}
	
		.st10{clip-path:url(#SVGID_00000053516460092399587800000008690386303385186495_);fill:#FFFFFF;stroke:#FFFFFF;stroke-miterlimit:10;}
</style>
<path class="st0" d="M26.88,42.5c9-1.95,15.74-9.96,15.74-19.55c0-3.81-1.07-7.38-2.92-10.41"/>
<path class="st0" d="M19.62,42.73"/>
<path class="st0" d="M5.54,12.54c-1.85,3.03-2.92,6.6-2.92,10.41c0,9.58,6.74,17.59,15.74,19.55"/>
<path class="st1" d="M9.05,8.25"/>
<path class="st0" d="M9.63,7.74"/>
<path class="st0" d="M34.53,6.89c-3.33-2.47-7.45-3.94-11.92-3.94c-4.47,0-8.59,1.46-11.92,3.94"/>
<g>
	<path class="st2" d="M22.62,25.45c-1.38,0-2.5-1.12-2.5-2.5s1.12-2.5,2.5-2.5c1.38,0,2.5,1.12,2.5,2.5S23.99,25.45,22.62,25.45z"/>
	<path class="st2" d="M22.62,20.95c1.1,0,2,0.9,2,2s-0.9,2-2,2s-2-0.9-2-2S21.51,20.95,22.62,20.95 M22.62,19.95c-1.66,0-3,1.34-3,3
		s1.34,3,3,3c1.66,0,3-1.34,3-3S24.27,19.95,22.62,19.95L22.62,19.95z"/>
</g>
<line class="st3" x1="22.62" y1="42.95" x2="22.62" y2="22.95"/>
<path class="st4" d="M22.62,42.95"/>
<path class="st4" d="M0.35,5.05"/>
<g>
	<circle class="st2" cx="22.62" cy="13.95" r="2.5"/>
	<path class="st2" d="M22.62,11.95c1.1,0,2,0.9,2,2s-0.9,2-2,2s-2-0.9-2-2S21.51,11.95,22.62,11.95 M22.62,10.95c-1.66,0-3,1.34-3,3
		s1.34,3,3,3c1.66,0,3-1.34,3-3S24.27,10.95,22.62,10.95L22.62,10.95z"/>
</g>
<path class="st4" d="M7.12,9.45"/>
<line class="st3" x1="25.62" y1="22.95" x2="23.62" y2="42.93"/>
<line class="st3" x1="19.62" y1="22.95" x2="21.61" y2="42.93"/>
<g>
	<g id="_x3C_Зеркальный_повтор_x3E__00000082327498399116672590000015912391938755408256_">
		<g>
			<defs>
				<rect id="SVGID_1_" x="22.32" y="7.95" width="16.79" height="15.34"/>
			</defs>
			<clipPath id="SVGID_00000108286150403460460970000001065112710077350803_">
				<use xlink:href="#SVGID_1_"  style="overflow:visible;"/>
			</clipPath>
			
				<path style="clip-path:url(#SVGID_00000108286150403460460970000001065112710077350803_);fill:none;stroke:#F15A24;stroke-width:4;stroke-miterlimit:10;" d="
				M36.8,8.85"/>
			
				<line style="clip-path:url(#SVGID_00000108286150403460460970000001065112710077350803_);fill:none;stroke:#FFFFFF;stroke-miterlimit:10;" x1="37.49" y1="9.58" x2="23.12" y2="22.45"/>
			
				<line style="clip-path:url(#SVGID_00000108286150403460460970000001065112710077350803_);fill:none;stroke:#FFFFFF;stroke-miterlimit:10;" x1="22.62" y1="19.95" x2="37.12" y2="9.45"/>
			
				<line style="clip-path:url(#SVGID_00000108286150403460460970000001065112710077350803_);fill:none;stroke:#FFFFFF;stroke-miterlimit:10;" x1="25.62" y1="22.95" x2="37.74" y2="9.86"/>
			
				<circle style="clip-path:url(#SVGID_00000108286150403460460970000001065112710077350803_);fill:#FFFFFF;stroke:#FFFFFF;stroke-miterlimit:10;" cx="37.62" cy="9.45" r="1"/>
		</g>
	</g>
	<g id="_x3C_Зеркальный_повтор_x3E__00000005226706278912083890000002767087348387563142_">
		<g>
			<defs>
				<rect id="SVGID_00000160892771348351593940000014504343949757671338_" x="6.09" y="7.95" width="16.79" height="15.34"/>
			</defs>
			<clipPath id="SVGID_00000131366680313945008900000012992482886207061400_">
				<use xlink:href="#SVGID_00000160892771348351593940000014504343949757671338_"  style="overflow:visible;"/>
			</clipPath>
			
				<path style="clip-path:url(#SVGID_00000131366680313945008900000012992482886207061400_);fill:none;stroke:#F15A24;stroke-width:4;stroke-miterlimit:10;" d="
				M8.41,8.85"/>
			
				<line style="clip-path:url(#SVGID_00000131366680313945008900000012992482886207061400_);fill:none;stroke:#FFFFFF;stroke-miterlimit:10;" x1="7.72" y1="9.58" x2="22.09" y2="22.45"/>
			
				<line style="clip-path:url(#SVGID_00000131366680313945008900000012992482886207061400_);fill:none;stroke:#FFFFFF;stroke-miterlimit:10;" x1="22.59" y1="19.95" x2="8.09" y2="9.45"/>
			
				<line style="clip-path:url(#SVGID_00000131366680313945008900000012992482886207061400_);fill:none;stroke:#FFFFFF;stroke-miterlimit:10;" x1="19.59" y1="22.95" x2="7.47" y2="9.86"/>
			
				<circle style="clip-path:url(#SVGID_00000131366680313945008900000012992482886207061400_);fill:#FFFFFF;stroke:#FFFFFF;stroke-miterlimit:10;" cx="7.59" cy="9.45" r="1"/>
		</g>
	</g>
</g>
<g>
	<circle class="st2" cx="22.62" cy="42.95" r="1.5"/>
	<path class="st2" d="M22.62,41.95c0.55,0,1,0.45,1,1s-0.45,1-1,1s-1-0.45-1-1S22.06,41.95,22.62,41.95 M22.62,40.95
		c-1.1,0-2,0.9-2,2s0.9,2,2,2s2-0.9,2-2S23.72,40.95,22.62,40.95L22.62,40.95z"/>
</g>
<g>
	<g>
		<path class="st2" d="M23.89,31.84c1.93,0,1.93-3,0-3C21.95,28.84,21.95,31.84,23.89,31.84L23.89,31.84z"/>
	</g>
</g>
<g>
	<g>
		<path class="st2" d="M23.8,28.6c1.93,0,1.93-3,0-3C21.86,25.6,21.86,28.6,23.8,28.6L23.8,28.6z"/>
	</g>
</g>
<g>
	<g>
		<path class="st2" d="M24.34,27.34c1.93,0,1.93-3,0-3C22.4,24.34,22.4,27.34,24.34,27.34L24.34,27.34z"/>
	</g>
</g>
<g>
	<g>
		<path class="st2" d="M23.8,29.86c1.93,0,1.93-3,0-3C21.86,26.86,21.86,29.86,23.8,29.86L23.8,29.86z"/>
	</g>
</g>
<g>
	<g>
		<path class="st2" d="M23.62,33.19c1.93,0,1.93-3,0-3C21.68,30.19,21.68,33.19,23.62,33.19L23.62,33.19z"/>
	</g>
</g>
<g>
	<g>
		<path class="st2" d="M23.62,34.63c1.93,0,1.93-3,0-3C21.68,31.63,21.68,34.63,23.62,34.63L23.62,34.63z"/>
	</g>
</g>
<g>
	<g>
		<path class="st2" d="M23.44,36.7c1.93,0,1.93-3,0-3C21.5,33.7,21.5,36.7,23.44,36.7L23.44,36.7z"/>
	</g>
</g>
<g>
	<g>
		<path class="st2" d="M21.36,37.94c0.03,0.15,0.06,0.3,0.09,0.45c0.05,0.2,0.14,0.37,0.27,0.51c0.11,0.16,0.25,0.29,0.42,0.39
			c0.17,0.11,0.36,0.17,0.56,0.18c0.2,0.04,0.4,0.04,0.6-0.03c0.12-0.05,0.24-0.1,0.36-0.15c0.23-0.13,0.4-0.31,0.54-0.54
			c0.05-0.12,0.1-0.24,0.15-0.36c0.07-0.27,0.07-0.53,0-0.8c-0.03-0.15-0.06-0.3-0.09-0.45c-0.05-0.2-0.14-0.37-0.27-0.51
			c-0.11-0.16-0.25-0.29-0.42-0.39c-0.17-0.11-0.36-0.17-0.56-0.18c-0.2-0.04-0.4-0.04-0.6,0.03c-0.12,0.05-0.24,0.1-0.36,0.15
			c-0.23,0.13-0.4,0.31-0.54,0.54c-0.05,0.12-0.1,0.24-0.15,0.36C21.29,37.41,21.29,37.67,21.36,37.94L21.36,37.94z"/>
	</g>
</g>
<g>
	<g>
		<path class="st2" d="M22.9,41.29c1.93,0,1.93-3,0-3C20.96,38.29,20.96,41.29,22.9,41.29L22.9,41.29z"/>
	</g>
</g>
<g>
	<g>
		<path class="st2" d="M22.81,37.6c1.93,0,1.93-3,0-3C20.87,34.6,20.87,37.6,22.81,37.6L22.81,37.6z"/>
	</g>
</g>
<g>
	<g>
		<path class="st2" d="M22.99,35.62c1.93,0,1.93-3,0-3C21.05,32.62,21.05,35.62,22.99,35.62L22.99,35.62z"/>
	</g>
</g>
<g>
	<g>
		<path class="st2" d="M23.59,31.87c0-0.09,0-0.18,0-0.27c0.01-0.21-0.04-0.4-0.13-0.58c-0.06-0.19-0.16-0.35-0.31-0.48
			c-0.14-0.15-0.3-0.25-0.48-0.31c-0.18-0.09-0.37-0.14-0.58-0.13c-0.13,0.02-0.27,0.04-0.4,0.05c-0.25,0.07-0.47,0.2-0.66,0.39
			c-0.08,0.1-0.16,0.2-0.23,0.3c-0.14,0.23-0.2,0.49-0.2,0.76c0,0.09,0,0.18,0,0.27c-0.01,0.21,0.04,0.4,0.13,0.58
			c0.06,0.19,0.16,0.35,0.31,0.48c0.14,0.15,0.3,0.25,0.48,0.31c0.18,0.09,0.37,0.14,0.58,0.13c0.13-0.02,0.27-0.04,0.4-0.05
			c0.25-0.07,0.47-0.2,0.66-0.39c0.08-0.1,0.16-0.2,0.23-0.3C23.52,32.39,23.58,32.14,23.59,31.87L23.59,31.87z"/>
	</g>
</g>
<g>
	<g>
		<path class="st2" d="M21.37,27.88c1.93,0,1.93-3,0-3C19.43,24.88,19.43,27.88,21.37,27.88L21.37,27.88z"/>
	</g>
</g>
<g>
	<g>
		<path class="st2" d="M20.92,26.89c1.93,0,1.93-3,0-3C18.98,23.89,18.98,26.89,20.92,26.89L20.92,26.89z"/>
	</g>
</g>
<g>
	<g>
		<path class="st2" d="M20.05,28.18c0,0.03,0,0.06,0,0.09c-0.01,0.21,0.04,0.4,0.13,0.58c0.06,0.19,0.16,0.35,0.31,0.48
			c0.14,0.15,0.3,0.25,0.48,0.31c0.18,0.09,0.37,0.14,0.58,0.13c0.13-0.02,0.27-0.04,0.4-0.05c0.25-0.07,0.47-0.2,0.66-0.39
			c0.08-0.1,0.16-0.2,0.23-0.3c0.14-0.23,0.2-0.49,0.2-0.76c0-0.03,0-0.06,0-0.09c0.01-0.21-0.04-0.4-0.13-0.58
			c-0.06-0.19-0.16-0.35-0.31-0.48c-0.14-0.15-0.3-0.25-0.48-0.31c-0.18-0.09-0.37-0.14-0.58-0.13c-0.13,0.02-0.27,0.04-0.4,0.05
			c-0.25,0.07-0.47,0.2-0.66,0.39c-0.08,0.1-0.16,0.2-0.23,0.3C20.11,27.66,20.05,27.91,20.05,28.18L20.05,28.18z"/>
	</g>
</g>
<g>
	<g>
		<path class="st2" d="M21.55,31.75c1.93,0,1.93-3,0-3C19.61,28.75,19.61,31.75,21.55,31.75L21.55,31.75z"/>
	</g>
</g>
<g>
	<g>
		<path class="st2" d="M22.09,36.52c1.93,0,1.93-3,0-3C20.15,33.52,20.15,36.52,22.09,36.52L22.09,36.52z"/>
	</g>
</g>
<g>
	<g>
		<path class="st2" d="M21.82,35.08c1.93,0,1.93-3,0-3C19.88,32.08,19.88,35.08,21.82,35.08L21.82,35.08z"/>
	</g>
</g>
<g>
	<g>
		<path class="st2" d="M25.96,21.58c1.93,0,1.93-3,0-3C24.02,18.58,24.02,21.58,25.96,21.58L25.96,21.58z"/>
	</g>
</g>
<g>
	<g>
		<path class="st2" d="M28.03,20.05c1.93,0,1.93-3,0-3C26.09,17.05,26.09,20.05,28.03,20.05L28.03,20.05z"/>
	</g>
</g>
<g>
	<g>
		<path class="st2" d="M30.1,17.71c1.93,0,1.93-3,0-3C28.16,14.71,28.16,17.71,30.1,17.71L30.1,17.71z"/>
	</g>
</g>
<g>
	<g>
		<path class="st2" d="M31.63,16.54c1.93,0,1.93-3,0-3C29.69,13.54,29.69,16.54,31.63,16.54L31.63,16.54z"/>
	</g>
</g>
<g>
	<g>
		<path class="st2" d="M28.93,18.97c1.93,0,1.93-3,0-3C26.99,15.97,26.99,18.97,28.93,18.97L28.93,18.97z"/>
	</g>
</g>
<g>
	<g>
		<path class="st2" d="M26.68,20.68c1.93,0,1.93-3,0-3C24.74,17.68,24.74,20.68,26.68,20.68L26.68,20.68z"/>
	</g>
</g>
<g>
	<g>
		<path class="st2" d="M24.97,21.58c1.93,0,1.93-3,0-3C23.03,18.58,23.03,21.58,24.97,21.58L24.97,21.58z"/>
	</g>
</g>
<g>
	<g>
		<path class="st2" d="M25.6,22.93c1.93,0,1.93-3,0-3C23.66,19.93,23.66,22.93,25.6,22.93L25.6,22.93z"/>
	</g>
</g>
<g>
	<g>
		<path class="st2" d="M27.49,19.24c1.93,0,1.93-3,0-3C25.55,16.24,25.55,19.24,27.49,19.24L27.49,19.24z"/>
	</g>
</g>
<g>
	<g>
		<path class="st2" d="M24.34,22.39c1.93,0,1.93-3,0-3C22.4,19.39,22.4,22.39,24.34,22.39L24.34,22.39z"/>
	</g>
</g>
<g>
	<g>
		<path class="st2" d="M20.11,22.12c1.93,0,1.93-3,0-3C18.17,19.12,18.17,22.12,20.11,22.12L20.11,22.12z"/>
	</g>
</g>
<g>
	<g>
		<path class="st2" d="M21.01,21.58c1.93,0,1.93-3,0-3C19.07,18.58,19.07,21.58,21.01,21.58L21.01,21.58z"/>
	</g>
</g>
<g>
	<g>
		<path class="st2" d="M19.75,22.48c1.93,0,1.93-3,0-3C17.81,19.48,17.81,22.48,19.75,22.48L19.75,22.48z"/>
	</g>
</g>
<g>
	<g>
		<path class="st2" d="M19.39,21.49c1.93,0,1.93-3,0-3C17.45,18.49,17.45,21.49,19.39,21.49L19.39,21.49z"/>
	</g>
</g>
<g>
	<g>
		<path class="st2" d="M18.22,20.32c1.93,0,1.93-3,0-3C16.28,17.32,16.28,20.32,18.22,20.32L18.22,20.32z"/>
	</g>
</g>
<g>
	<g>
		<path class="st2" d="M16.87,18.97c1.93,0,1.93-3,0-3C14.93,15.97,14.93,18.97,16.87,18.97L16.87,18.97z"/>
	</g>
</g>
<g>
	<g>
		<path class="st2" d="M15.79,18.16c1.93,0,1.93-3,0-3C13.85,15.16,13.85,18.16,15.79,18.16L15.79,18.16z"/>
	</g>
</g>
<g>
	<g>
		<path class="st2" d="M14.26,16.99c1.93,0,1.93-3,0-3C12.32,13.99,12.32,16.99,14.26,16.99L14.26,16.99z"/>
	</g>
</g>
<g>
	<g>
		<path class="st2" d="M13.54,16.27c1.93,0,1.93-3,0-3C11.6,13.27,11.6,16.27,13.54,16.27L13.54,16.27z"/>
	</g>
</g>
<g>
	<g>
		<path class="st2" d="M17.68,20.32c1.93,0,1.93-3,0-3C15.74,17.32,15.74,20.32,17.68,20.32L17.68,20.32z"/>
	</g>
</g>
<g>
	<g>
		<path class="st2" d="M18.31,21.22c1.93,0,1.93-3,0-3C16.37,18.22,16.37,21.22,18.31,21.22L18.31,21.22z"/>
	</g>
</g>
<g>
	<path class="st2" d="M19.11,19.23"/>
	<g>
		<path class="st2" d="M19.11,20.73c1.93,0,1.93-3,0-3C17.18,17.73,17.18,20.73,19.11,20.73L19.11,20.73z"/>
	</g>
</g>
</svg>
