<?xml version="1.0" encoding="utf-8"?>
<!-- Generator: Adobe Illustrator 25.4.webpack.config.js, SVG Export Plug-In . SVG Version: 6.00 Build 0)  -->
<svg version="1.1" id="Слой_1" xmlns="http://www.w3.org/2000/svg" xmlns:xlink="http://www.w3.org/1999/xlink" x="0px" y="0px"
	 viewBox="0 0 52 51.9" style="enable-background:new 0 0 52 51.9;" xml:space="preserve">
<style type="text/css">
	.st0{fill:#2B3037;stroke:#2B3037;stroke-miterlimit:10;}
	.st1{fill:none;stroke:#FF8560;stroke-width:4;stroke-miterlimit:10;}
	.st2{fill:none;stroke:#F15A24;stroke-width:4;stroke-miterlimit:10;}
	.st3{fill:#FFFFFF;}
	.st4{fill:none;stroke:#FFFFFF;stroke-miterlimit:10;}
	.st5{fill:none;stroke:#F15A24;stroke-miterlimit:10;}
	
		.st6{clip-path:url(#SVGID_00000083790536772200430130000009104342205117207963_);fill:none;stroke:#F15A24;stroke-width:4;stroke-miterlimit:10;}
	.st7{clip-path:url(#SVGID_00000071560707884300767660000013417726036082893212_);fill:none;stroke:#FFFFFF;stroke-miterlimit:10;}
	.st8{clip-path:url(#SVGID_00000026157628728256109370000017740554707452687513_);fill:none;stroke:#FFFFFF;stroke-miterlimit:10;}
	.st9{clip-path:url(#SVGID_00000163067360829397910210000001453834316692348293_);fill:none;stroke:#FFFFFF;stroke-miterlimit:10;}
	
		.st10{clip-path:url(#SVGID_00000181067088939630945900000008111700234346166915_);fill:#FFFFFF;stroke:#FFFFFF;stroke-miterlimit:10;}
	
		.st11{clip-path:url(#SVGID_00000106149560566721057460000005381677549250135978_);fill:none;stroke:#F15A24;stroke-width:4;stroke-miterlimit:10;}
	.st12{clip-path:url(#SVGID_00000072965891197605200230000017969608451719803054_);fill:none;stroke:#FFFFFF;stroke-miterlimit:10;}
	.st13{clip-path:url(#SVGID_00000149377275834091279490000015662938809786214066_);fill:none;stroke:#FFFFFF;stroke-miterlimit:10;}
	.st14{clip-path:url(#SVGID_00000095316330295190773760000014478913670888789395_);fill:none;stroke:#FFFFFF;stroke-miterlimit:10;}
	
		.st15{clip-path:url(#SVGID_00000170254400747935570080000006382030090995381684_);fill:#FFFFFF;stroke:#FFFFFF;stroke-miterlimit:10;}
</style>
<circle class="st0" cx="25.9" cy="25.9" r="25"/>
<path class="st1" d="M30,45.5c9-2,15.7-10,15.7-19.5c0-3.8-1.1-7.4-2.9-10.4"/>
<path class="st1" d="M22.7,45.7"/>
<path class="st1" d="M8.7,15.5c-1.8,3-2.9,6.6-2.9,10.4c0,9.6,6.7,17.6,15.7,19.5"/>
<path class="st2" d="M12.2,11.2"/>
<path class="st1" d="M12.8,10.7"/>
<path class="st1" d="M37.6,9.9C34.3,7.4,30.2,6,25.7,6s-8.6,1.5-11.9,3.9"/>
<g>
	<path class="st3" d="M25.7,28.5c-1.4,0-2.5-1.1-2.5-2.5s1.1-2.5,2.5-2.5s2.5,1.1,2.5,2.5S27.1,28.5,25.7,28.5z"/>
	<path class="st3" d="M25.7,24c1.1,0,2,0.9,2,2s-0.9,2-2,2s-2-0.9-2-2S24.6,24,25.7,24 M25.7,23c-1.7,0-3,1.3-3,3s1.3,3,3,3
		s3-1.3,3-3S27.4,23,25.7,23L25.7,23z"/>
</g>
<line class="st4" x1="25.7" y1="46" x2="25.7" y2="26"/>
<path class="st5" d="M25.7,46"/>
<path class="st5" d="M3.5,8.1"/>
<g>
	<circle class="st3" cx="25.7" cy="17" r="2.5"/>
	<path class="st3" d="M25.7,14.9c1.1,0,2,0.9,2,2s-0.9,2-2,2s-2-0.9-2-2S24.6,14.9,25.7,14.9 M25.7,13.9c-1.7,0-3,1.3-3,3s1.3,3,3,3
		s3-1.3,3-3S27.4,13.9,25.7,13.9L25.7,13.9z"/>
</g>
<path class="st5" d="M10.2,12.4"/>
<line class="st4" x1="28.7" y1="26" x2="26.7" y2="45.9"/>
<line class="st4" x1="22.7" y1="26" x2="24.7" y2="45.9"/>
<g>
	<g id="_x3C_Зеркальный_повтор_x3E__00000082327498399116672590000015912391938755408256_">
		<g>
			<g>
				<g>
					<defs>
						<rect id="SVGID_1_" x="25.4" y="10.9" width="16.8" height="15.3"/>
					</defs>
					<clipPath id="SVGID_00000126322550084935422540000004250538846968125334_">
						<use xlink:href="#SVGID_1_"  style="overflow:visible;"/>
					</clipPath>
					
						<path style="clip-path:url(#SVGID_00000126322550084935422540000004250538846968125334_);fill:none;stroke:#F15A24;stroke-width:4;stroke-miterlimit:10;" d="
						M39.9,11.9"/>
				</g>
			</g>
			<g>
				<g>
					<defs>
						<rect id="SVGID_00000050622086352195259180000000679397286571281055_" x="25.4" y="10.9" width="16.8" height="15.3"/>
					</defs>
					<clipPath id="SVGID_00000053538333029759263030000016563827610142391995_">
						<use xlink:href="#SVGID_00000050622086352195259180000000679397286571281055_"  style="overflow:visible;"/>
					</clipPath>
					
						<line style="clip-path:url(#SVGID_00000053538333029759263030000016563827610142391995_);fill:none;stroke:#FFFFFF;stroke-miterlimit:10;" x1="40.6" y1="12.6" x2="26.2" y2="25.5"/>
				</g>
			</g>
			<g>
				<g>
					<defs>
						<rect id="SVGID_00000086684792031525894260000008802153998211079855_" x="25.4" y="10.9" width="16.8" height="15.3"/>
					</defs>
					<clipPath id="SVGID_00000016034951152232798450000004395413963422137997_">
						<use xlink:href="#SVGID_00000086684792031525894260000008802153998211079855_"  style="overflow:visible;"/>
					</clipPath>
					
						<line style="clip-path:url(#SVGID_00000016034951152232798450000004395413963422137997_);fill:none;stroke:#FFFFFF;stroke-miterlimit:10;" x1="25.7" y1="23" x2="40.2" y2="12.4"/>
				</g>
			</g>
			<g>
				<g>
					<defs>
						<rect id="SVGID_00000165199057325269637890000000133747614339648926_" x="25.4" y="10.9" width="16.8" height="15.3"/>
					</defs>
					<clipPath id="SVGID_00000072979779082673718330000013551447034262110141_">
						<use xlink:href="#SVGID_00000165199057325269637890000000133747614339648926_"  style="overflow:visible;"/>
					</clipPath>
					
						<line style="clip-path:url(#SVGID_00000072979779082673718330000013551447034262110141_);fill:none;stroke:#FFFFFF;stroke-miterlimit:10;" x1="28.7" y1="26" x2="40.9" y2="12.9"/>
				</g>
			</g>
			<g>
				<g>
					<defs>
						<rect id="SVGID_00000124153546121347156410000011926951759408224154_" x="25.4" y="10.9" width="16.8" height="15.3"/>
					</defs>
					<clipPath id="SVGID_00000165939143592105327620000008558979207205954720_">
						<use xlink:href="#SVGID_00000124153546121347156410000011926951759408224154_"  style="overflow:visible;"/>
					</clipPath>
					
						<circle style="clip-path:url(#SVGID_00000165939143592105327620000008558979207205954720_);fill:#FFFFFF;stroke:#FFFFFF;stroke-miterlimit:10;" cx="40.7" cy="12.4" r="1"/>
				</g>
			</g>
		</g>
	</g>
	<g id="_x3C_Зеркальный_повтор_x3E__00000005226706278912083890000002767087348387563142_">
		<g>
			<g>
				<g>
					<defs>
						<rect id="SVGID_00000155828551595696331330000007453633149233075087_" x="9.2" y="10.9" width="16.8" height="15.3"/>
					</defs>
					<clipPath id="SVGID_00000001638254127780214070000006188820447496587935_">
						<use xlink:href="#SVGID_00000155828551595696331330000007453633149233075087_"  style="overflow:visible;"/>
					</clipPath>
					
						<path style="clip-path:url(#SVGID_00000001638254127780214070000006188820447496587935_);fill:none;stroke:#F15A24;stroke-width:4;stroke-miterlimit:10;" d="
						M11.5,11.9"/>
				</g>
			</g>
			<g>
				<g>
					<defs>
						<rect id="SVGID_00000127763525686306737320000001215007142523203750_" x="9.2" y="10.9" width="16.8" height="15.3"/>
					</defs>
					<clipPath id="SVGID_00000170960192750254255080000004775383797112809139_">
						<use xlink:href="#SVGID_00000127763525686306737320000001215007142523203750_"  style="overflow:visible;"/>
					</clipPath>
					
						<line style="clip-path:url(#SVGID_00000170960192750254255080000004775383797112809139_);fill:none;stroke:#FFFFFF;stroke-miterlimit:10;" x1="10.8" y1="12.6" x2="25.2" y2="25.5"/>
				</g>
			</g>
			<g>
				<g>
					<defs>
						<rect id="SVGID_00000132777911850811577450000015289758096949475227_" x="9.2" y="10.9" width="16.8" height="15.3"/>
					</defs>
					<clipPath id="SVGID_00000167367064523595423030000004115065763183211933_">
						<use xlink:href="#SVGID_00000132777911850811577450000015289758096949475227_"  style="overflow:visible;"/>
					</clipPath>
					
						<line style="clip-path:url(#SVGID_00000167367064523595423030000004115065763183211933_);fill:none;stroke:#FFFFFF;stroke-miterlimit:10;" x1="25.7" y1="23" x2="11.2" y2="12.4"/>
				</g>
			</g>
			<g>
				<g>
					<defs>
						<rect id="SVGID_00000111155546650164297260000013332633518720607655_" x="9.2" y="10.9" width="16.8" height="15.3"/>
					</defs>
					<clipPath id="SVGID_00000145033367694187529240000002168447269775846588_">
						<use xlink:href="#SVGID_00000111155546650164297260000013332633518720607655_"  style="overflow:visible;"/>
					</clipPath>
					
						<line style="clip-path:url(#SVGID_00000145033367694187529240000002168447269775846588_);fill:none;stroke:#FFFFFF;stroke-miterlimit:10;" x1="22.7" y1="26" x2="10.6" y2="12.9"/>
				</g>
			</g>
			<g>
				<g>
					<defs>
						<rect id="SVGID_00000057842347384303978230000015400662360015883919_" x="9.2" y="10.9" width="16.8" height="15.3"/>
					</defs>
					<clipPath id="SVGID_00000000202162422615038730000016478842133319352740_">
						<use xlink:href="#SVGID_00000057842347384303978230000015400662360015883919_"  style="overflow:visible;"/>
					</clipPath>
					
						<circle style="clip-path:url(#SVGID_00000000202162422615038730000016478842133319352740_);fill:#FFFFFF;stroke:#FFFFFF;stroke-miterlimit:10;" cx="10.7" cy="12.4" r="1"/>
				</g>
			</g>
		</g>
	</g>
</g>
<g>
	<circle class="st3" cx="25.7" cy="46" r="1.5"/>
	<path class="st3" d="M25.7,45c0.5,0,1,0.5,1,1s-0.5,1-1,1s-1-0.5-1-1S25.2,45,25.7,45 M25.7,44c-1.1,0-2,0.9-2,2s0.9,2,2,2
		s2-0.9,2-2S26.8,44,25.7,44L25.7,44z"/>
</g>
<g>
	<g>
		<path class="st3" d="M27,34.8c1.9,0,1.9-3,0-3S25.1,34.8,27,34.8L27,34.8z"/>
	</g>
</g>
<g>
	<g>
		<path class="st3" d="M26.9,31.6c1.9,0,1.9-3,0-3S25,31.6,26.9,31.6L26.9,31.6z"/>
	</g>
</g>
<g>
	<g>
		<path class="st3" d="M27.5,30.3c1.9,0,1.9-3,0-3C25.5,27.3,25.5,30.3,27.5,30.3L27.5,30.3z"/>
	</g>
</g>
<g>
	<g>
		<path class="st3" d="M26.9,32.9c1.9,0,1.9-3,0-3C25,29.9,25,32.9,26.9,32.9L26.9,32.9z"/>
	</g>
</g>
<g>
	<g>
		<path class="st3" d="M26.7,36.2c1.9,0,1.9-3,0-3C24.8,33.2,24.8,36.2,26.7,36.2L26.7,36.2z"/>
	</g>
</g>
<g>
	<g>
		<path class="st3" d="M26.7,37.6c1.9,0,1.9-3,0-3C24.8,34.6,24.8,37.6,26.7,37.6L26.7,37.6z"/>
	</g>
</g>
<g>
	<g>
		<path class="st3" d="M26.4,39.7c1.9,0,1.9-3,0-3C24.4,36.7,24.4,39.7,26.4,39.7L26.4,39.7z"/>
	</g>
</g>
<g>
	<g>
		<path class="st3" d="M24.3,41c0,0.2,0.1,0.3,0.1,0.5s0.1,0.4,0.3,0.5c0.1,0.2,0.2,0.3,0.4,0.4c0.2,0.1,0.4,0.2,0.6,0.2
			s0.4,0,0.6,0c0.1,0,0.2-0.1,0.4-0.2c0.2-0.1,0.4-0.3,0.5-0.5c0-0.1,0.1-0.2,0.1-0.4c0.1-0.3,0.1-0.5,0-0.8c0-0.2-0.1-0.3-0.1-0.5
			s-0.1-0.4-0.3-0.5c-0.1-0.2-0.2-0.3-0.4-0.4c-0.2-0.1-0.4-0.2-0.6-0.2s-0.4,0-0.6,0c-0.1,0-0.2,0.1-0.4,0.2
			c-0.2,0.1-0.4,0.3-0.5,0.5c0,0.1-0.1,0.2-0.1,0.4C24.2,40.5,24.2,40.8,24.3,41L24.3,41z"/>
	</g>
</g>
<g>
	<g>
		<path class="st3" d="M25.7,44.4c1.9,0,1.9-3,0-3S23.8,44.4,25.7,44.4L25.7,44.4z"/>
	</g>
</g>
<g>
	<g>
		<path class="st3" d="M25.9,40.6c1.9,0,1.9-3,0-3S24,40.6,25.9,40.6L25.9,40.6z"/>
	</g>
</g>
<g>
	<g>
		<path class="st3" d="M26.1,38.6c1.9,0,1.9-3,0-3S24.2,38.6,26.1,38.6L26.1,38.6z"/>
	</g>
</g>
<g>
	<g>
		<path class="st3" d="M26.7,34.9c0-0.1,0-0.2,0-0.3c0-0.2,0-0.4-0.1-0.6c-0.1-0.2-0.2-0.4-0.3-0.5c-0.1-0.2-0.3-0.2-0.5-0.3
			s-0.4-0.1-0.6-0.1c-0.1,0-0.3,0-0.4,0c-0.2,0.1-0.5,0.2-0.7,0.4c-0.1,0.1-0.2,0.2-0.2,0.3c-0.1,0.2-0.2,0.5-0.2,0.8
			c0,0.1,0,0.2,0,0.3c0,0.2,0,0.4,0.1,0.6c0.1,0.2,0.2,0.3,0.3,0.5c0.1,0.2,0.3,0.2,0.5,0.3s0.4,0.1,0.6,0.1c0.1,0,0.3,0,0.4,0
			c0.2-0.1,0.5-0.2,0.7-0.4c0.1-0.1,0.2-0.2,0.2-0.3C26.6,35.4,26.7,35.1,26.7,34.9L26.7,34.9z"/>
	</g>
</g>
<g>
	<g>
		<path class="st3" d="M24.5,30.9c1.9,0,1.9-3,0-3S22.6,30.9,24.5,30.9L24.5,30.9z"/>
	</g>
</g>
<g>
	<g>
		<path class="st3" d="M24,29.9c1.9,0,1.9-3,0-3S22.1,29.9,24,29.9L24,29.9z"/>
	</g>
</g>
<g>
	<g>
		<path class="st3" d="M23.2,31.2L23.2,31.2c0,0.3,0,0.5,0.1,0.7s0.2,0.4,0.3,0.5c0.1,0.2,0.3,0.2,0.5,0.3s0.4,0.1,0.6,0.1
			c0.1,0,0.3,0,0.4,0c0.2-0.1,0.5-0.2,0.7-0.4c0.1-0.1,0.2-0.2,0.2-0.3c0.1-0.2,0.2-0.5,0.2-0.8v-0.1c0-0.2,0-0.4-0.1-0.6
			s-0.2-0.4-0.3-0.5c-0.1-0.1-0.3-0.2-0.5-0.3c-0.2-0.1-0.4-0.1-0.6-0.1c-0.1,0-0.3,0-0.4,0c-0.2,0.1-0.5,0.2-0.7,0.4
			c-0.1,0.1-0.2,0.2-0.2,0.3C23.2,30.7,23.2,30.9,23.2,31.2L23.2,31.2z"/>
	</g>
</g>
<g>
	<g>
		<path class="st3" d="M24.7,34.8c1.9,0,1.9-3,0-3C22.7,31.8,22.7,34.8,24.7,34.8L24.7,34.8z"/>
	</g>
</g>
<g>
	<g>
		<path class="st3" d="M25.2,39.5c1.9,0,1.9-3,0-3C23.3,36.5,23.3,39.5,25.2,39.5L25.2,39.5z"/>
	</g>
</g>
<g>
	<g>
		<path class="st3" d="M24.9,38.1c1.9,0,1.9-3,0-3S23,38.1,24.9,38.1L24.9,38.1z"/>
	</g>
</g>
<g>
	<g>
		<path class="st3" d="M29.1,24.6c1.9,0,1.9-3,0-3C27.1,21.6,27.1,24.6,29.1,24.6L29.1,24.6z"/>
	</g>
</g>
<g>
	<g>
		<path class="st3" d="M31.2,23c1.9,0,1.9-3,0-3C29.2,20,29.2,23,31.2,23L31.2,23z"/>
	</g>
</g>
<g>
	<g>
		<path class="st3" d="M33.6,20.2c1.9,0,1.9-3,0-3S31.7,20.2,33.6,20.2L33.6,20.2z"/>
	</g>
</g>
<g>
	<g>
		<path class="st3" d="M35.3,18.8c1.9,0,1.9-3,0-3C33.3,15.8,33.3,18.8,35.3,18.8L35.3,18.8z"/>
	</g>
</g>
<g>
	<g>
		<path class="st3" d="M32,21.7c1.9,0,1.9-3,0-3C30.1,18.7,30.1,21.7,32,21.7L32,21.7z"/>
	</g>
</g>
<g>
	<g>
		<path class="st3" d="M29.7,23.7c1.9,0,1.9-3,0-3S27.8,23.7,29.7,23.7L29.7,23.7z"/>
	</g>
</g>
<g>
	<g>
		<path class="st3" d="M28.1,24.6c1.9,0,1.9-3,0-3S26.2,24.6,28.1,24.6L28.1,24.6z"/>
	</g>
</g>
<g>
	<g>
		<path class="st3" d="M28.7,25.9c1.9,0,1.9-3,0-3C26.8,22.9,26.8,25.9,28.7,25.9L28.7,25.9z"/>
	</g>
</g>
<g>
	<g>
		<path class="st3" d="M30.6,22.2c1.9,0,1.9-3,0-3S28.7,22.2,30.6,22.2L30.6,22.2z"/>
	</g>
</g>
<g>
	<g>
		<path class="st3" d="M27.5,25.4c1.9,0,1.9-3,0-3C25.5,22.4,25.5,25.4,27.5,25.4L27.5,25.4z"/>
	</g>
</g>
<g>
	<g>
		<path class="st3" d="M23.2,25.1c1.9,0,1.9-3,0-3C21.3,22.1,21.3,25.1,23.2,25.1L23.2,25.1z"/>
	</g>
</g>
<g>
	<g>
		<path class="st3" d="M24.1,24.6c1.9,0,1.9-3,0-3S22.2,24.6,24.1,24.6L24.1,24.6z"/>
	</g>
</g>
<g>
	<g>
		<path class="st3" d="M22.9,25.5c1.9,0,1.9-3,0-3C20.9,22.5,20.9,25.5,22.9,25.5L22.9,25.5z"/>
	</g>
</g>
<g>
	<g>
		<path class="st3" d="M22.5,24.5c1.9,0,1.9-3,0-3S20.6,24.5,22.5,24.5L22.5,24.5z"/>
	</g>
</g>
<g>
	<g>
		<path class="st3" d="M21.3,23.3c1.9,0,1.9-3,0-3S19.4,23.3,21.3,23.3L21.3,23.3z"/>
	</g>
</g>
<g>
	<g>
		<path class="st3" d="M20,22c1.9,0,1.9-3,0-3S18.1,22,20,22L20,22z"/>
	</g>
</g>
<g>
	<g>
		<path class="st3" d="M18.9,21.2c1.9,0,1.9-3,0-3S17,21.2,18.9,21.2L18.9,21.2z"/>
	</g>
</g>
<g>
	<g>
		<path class="st3" d="M17.4,20c1.9,0,1.9-3,0-3C15.4,17,15.4,20,17.4,20L17.4,20z"/>
	</g>
</g>
<g>
	<g>
		<path class="st3" d="M16.3,18.9c1.9,0,1.9-3,0-3C14.3,15.9,14.3,18.9,16.3,18.9L16.3,18.9z"/>
	</g>
</g>
<g>
	<g>
		<path class="st3" d="M20.8,23.3c1.9,0,1.9-3,0-3S18.9,23.3,20.8,23.3L20.8,23.3z"/>
	</g>
</g>
<g>
	<g>
		<path class="st3" d="M21.4,24.2c1.9,0,1.9-3,0-3S19.5,24.2,21.4,24.2L21.4,24.2z"/>
	</g>
</g>
<g>
	<path class="st3" d="M22.2,22.2"/>
	<g>
		<path class="st3" d="M22.2,23.7c1.9,0,1.9-3,0-3S20.3,23.7,22.2,23.7L22.2,23.7z"/>
	</g>
</g>
</svg>
