<svg height="40" version="1.1" width="40" xmlns="http://www.w3.org/2000/svg" style="overflow: hidden; position: relative; left: -0.0833333px; top: -0.520833px;" id="canvas-for-livicon-52"><desc style="-webkit-tap-highlight-color: rgba(0, 0, 0, 0);"></desc><defs style="-webkit-tap-highlight-color: rgba(0, 0, 0, 0);"></defs><path fill="#ffffff" stroke="none" d="M28,12V29H4V12H28Z" transform="matrix(-1.25,0,0,-1.25,40,-73.75)" stroke-width="0" style="-webkit-tap-highlight-color: rgba(0, 0, 0, 0); opacity: 0;" opacity="0"></path><path fill="#ffffff" stroke="none" d="M3.2,26C2.537,26,2,25.463,2,24.801V9.5L7.6,14.1L4,24L9.1,15.4L14.113,19.025C15.155,19.843,16.844,19.843,17.886,19.025L22.9,15.4L28,24L24.4,14.1L30,9.5V24.801000000000002C30,25.463,29.463,26,28.801,26H3.2ZM28.801,6H3.2C2.537,6,2,6.537,2,7.2V7.958L14.113,17.478C15.155,18.294,16.843,18.294,17.886,17.478L30,7.958V7.2C30,6.537,29.463,6,28.801,6Z" opacity="1" stroke-width="0" transform="matrix(1.25,0,0,1.25,0,0)" style="-webkit-tap-highlight-color: rgba(0, 0, 0, 0); opacity: 1;"></path></svg>