<svg height="20" version="1.1" width="20" xmlns="http://www.w3.org/2000/svg" style="overflow: hidden; position: relative; left: -0.333333px; top: -0.333333px;" id="canvas-for-livicon-8"><desc style="-webkit-tap-highlight-color: rgba(0, 0, 0, 0);"></desc><defs style="-webkit-tap-highlight-color: rgba(0, 0, 0, 0);"></defs><path fill="#ffffff" stroke="none" d="M29,10.5C28.422,10.115,27.221,9.483,26.6,9.2C23.746000000000002,7.895,19.700000000000003,7.3999999999999995,16,7.3999999999999995C12.3,7.3999999999999995,8.254,7.895,5.4,9.2C4.779,9.484,3.578,10.115,3,10.5C2.4,10.9,1.6,11.899000000000001,2.1,13.2L3.5,16L10,12.6L9.324,11.247C9.2,11,9.245,10.707,9.5,10.601C10.7,10.101,12.9,9.301,16,9.301C19.1,9.301,21.299,10.101,22.5,10.601C22.754,10.707,22.799,11.001000000000001,22.676,11.248000000000001L22,12.601L28.5,16.001L29.898,13.201C30.4,11.9,29.6,10.9,29,10.5Z" transform="matrix(0.625,0,0,0.625,0,0)" stroke-width="0" style="-webkit-tap-highlight-color: rgba(0, 0, 0, 0);"></path><path fill="#ffffff" stroke="none" d="M23.899,16.601C23.2,15.100999999999999,21.700000000000003,14.200999999999999,20.200000000000003,13.600999999999999V12.501C20.200000000000003,11.401,19.499000000000002,10.901,18.499000000000002,10.901H16H16H13.5C12.5,10.901,11.8,11.401,11.8,12.501V13.600999999999999C10.3,14.200999999999999,8.8,15.100999999999999,8.100000000000001,16.601L6.200000000000001,22.901V26.401C6.200000000000001,27.301,7.000000000000001,28.001,7.800000000000001,28.001H16H16H24.2C24.999,28.001,25.8,27.302,25.8,26.401V22.901L23.899,16.601ZM16,21.301C13.073,21.301,10.7,19.599999999999998,10.7,17.5C10.7,15.402000000000001,13.073,13.701,16,13.701S21.3,15.402000000000001,21.3,17.5C21.3,19.6,18.927,21.301,16,21.301ZM18.3,17.5C18.3,18.494,17.271,19.301,16,19.301C14.73,19.301,13.7,18.494,13.7,17.5C13.7,16.506,14.729999999999999,15.701,16,15.701C17.271,15.701,18.3,16.506,18.3,17.5ZM14.9,19.6C14.624,19.6,14.4,19.825000000000003,14.4,20.1C14.4,20.377000000000002,14.624,20.6,14.9,20.6S15.4,20.377000000000002,15.4,20.1C15.4,19.824,15.176,19.6,14.9,19.6ZM12.9,18.5C12.624,18.5,12.4,18.725,12.4,19S12.624,19.5,12.9,19.5S13.4,19.275,13.4,19S13.176,18.5,12.9,18.5ZM12.2,16.5C11.924,16.5,11.7,16.724,11.7,17C11.7,17.276,11.924,17.5,12.2,17.5S12.7,17.276,12.7,17C12.7,16.725,12.477,16.5,12.2,16.5ZM13.8,14.9C13.524000000000001,14.9,13.3,15.124,13.3,15.4S13.524000000000001,15.9,13.8,15.9S14.3,15.676,14.3,15.4S14.076,14.9,13.8,14.9ZM16,14.219C15.724,14.219,15.5,14.443,15.5,14.719S15.724,15.219,16,15.219S16.5,14.995,16.5,14.719S16.276,14.219,16,14.219ZM16.7,20.1C16.7,20.377000000000002,16.923,20.6,17.201,20.6C17.476,20.6,17.701,20.377000000000002,17.701,20.1C17.701,19.825000000000003,17.476,19.6,17.201,19.6C16.923,19.6,16.7,19.824,16.7,20.1ZM18.701,19C18.701,19.275,18.924,19.5,19.201,19.5C19.476,19.5,19.701,19.275,19.701,19S19.476,18.5,19.201,18.5C18.924,18.5,18.701,18.725,18.701,19ZM19.4,16.9C19.4,17.174999999999997,19.622999999999998,17.4,19.9,17.4C20.174999999999997,17.4,20.4,17.174999999999997,20.4,16.9C20.4,16.624,20.174999999999997,16.4,19.9,16.4C19.623,16.4,19.4,16.625,19.4,16.9ZM17.801,15.4C17.801,15.676,18.023999999999997,15.9,18.301,15.9C18.575999999999997,15.9,18.801,15.676,18.801,15.4S18.575999999999997,14.9,18.301,14.9C18.023,14.9,17.801,15.125,17.801,15.4Z" stroke-width="0" transform="matrix(0.625,0,0,0.625,0,0)" style="-webkit-tap-highlight-color: rgba(0, 0, 0, 0);"></path></svg>