<svg height="18" version="1.1" width="18" xmlns="http://www.w3.org/2000/svg" style="overflow: hidden; position: relative; left: -0.333333px;" id="canvas-for-livicon-10"><desc style="-webkit-tap-highlight-color: rgba(0, 0, 0, 0);"></desc><defs style="-webkit-tap-highlight-color: rgba(0, 0, 0, 0);"></defs><path fill="#ffffff" stroke="none" d="M29.009,18.973C29.209,18.064,29.314,17.118,29.314,16.149C29.314,8.877,23.418,2.9810000000000016,16.144,2.9810000000000016C15.376999999999999,2.9810000000000016,14.623999999999999,3.0470000000000015,13.892999999999999,3.173000000000002C12.718,2.431,11.325,2,9.832,2C5.614,2,2.195,5.418,2.195,9.636C2.195,11.046,2.578,12.364999999999998,3.245,13.497C3.069,14.354,2.979,15.238,2.979,16.146C2.979,23.419,8.875,29.313000000000002,16.146,29.313000000000002C16.970000000000002,29.313000000000002,17.776,29.238000000000003,18.560000000000002,29.092000000000002C19.634,29.673,20.862,30,22.17,30C26.387,30,29.805,26.583,29.805,22.363C29.803,21.145,29.518,19.994,29.009,18.973ZM16.006,25.156C14.659,25.151999999999997,13.034,24.99,11.695,24.363999999999997C9.742,23.449999999999996,8.289,21.762999999999998,8.279,19.865C8.277,19.381999999999998,8.696,18.064999999999998,10.203,18.110999999999997C10.654,18.124999999999996,11.495,18.163999999999998,12.136,19.642999999999997C12.956,21.538999999999998,13.796,22.063999999999997,15.907,22.176C17.196,22.244,19.496,21.662999999999997,19.535,19.842999999999996C19.546,19.321999999999996,19.357,18.922999999999995,19.027,18.592999999999996C18.296,17.862999999999996,17.095000000000002,17.661999999999995,15.205000000000002,17.220999999999997C13.844000000000001,16.902999999999995,8.596000000000002,16.161999999999995,8.64,11.890999999999996C8.653,10.661999999999995,9.296000000000001,6.8619999999999965,15.955000000000002,6.842999999999996C21.496000000000002,6.826999999999996,22.996000000000002,9.961999999999996,22.895000000000003,11.272999999999996C22.795,12.573999999999996,21.996000000000002,13.060999999999996,21.004000000000005,13.108999999999996C19.895000000000003,13.162999999999997,19.374000000000006,12.192999999999996,19.083000000000006,11.708999999999996C18.095000000000006,10.062999999999995,17.395000000000007,9.723999999999997,15.703000000000007,9.739999999999997C13.295000000000007,9.762999999999996,12.595000000000006,10.962999999999997,12.604000000000006,11.563999999999997C12.609000000000007,11.863999999999997,12.682000000000006,12.123999999999997,12.867000000000006,12.331999999999997C13.695000000000006,13.262999999999998,15.498000000000006,13.547999999999996,16.533000000000005,13.786999999999997C18.595000000000006,14.262999999999998,20.579000000000004,14.783999999999997,21.699000000000005,15.575999999999997C23.095000000000006,16.562999999999995,23.763000000000005,17.662999999999997,23.718000000000004,19.464C23.596,24.265,18.795,25.164,16.006,25.156Z" stroke-width="0" transform="matrix(0.5625,0,0,0.5625,0,0)" style="-webkit-tap-highlight-color: rgba(0, 0, 0, 0);"></path></svg>