<svg height="28" version="1.1" width="28" xmlns="http://www.w3.org/2000/svg" style="overflow: hidden; position: relative; left: -0.673636px; top: -2.6491e-07px;" id="canvas-for-livicon-7"><desc style="-webkit-tap-highlight-color: rgba(0, 0, 0, 0);"></desc><defs style="-webkit-tap-highlight-color: rgba(0, 0, 0, 0);"></defs><path fill="#ffffff" stroke="none" d="M12,9L12,9L12,9L12,9L12,9ZM16,9L16,9L16,9L16,9L16,9ZM20,9L20,9L20,9L20,9L20,9ZM12,13L12,13L12,13L12,13L12,13ZM16,13L16,13L16,13L16,13L16,13ZM20,13L20,13L20,13L20,13L20,13ZM12,17L12,17L12,17L12,17L12,17ZM16,17L16,17L16,17L16,17L16,17ZM20,17L20,17L20,17L20,17L20,17ZM12,21L12,21L12,21L12,21L12,21ZM16,21L16,21L16,21L16,21L16,21ZM20,21L20,21L20,21L20,21L20,21Z" stroke-width="0" transform="matrix(0.875,0,0,0.875,0,0)" style="-webkit-tap-highlight-color: rgba(0, 0, 0, 0);"></path><path fill="#ffffff" stroke="none" d="M21.977,2H10.021C8.905,2,8,2.904,8,4.022V27.978C8,29.094,8.904,30,10.021,30H21.976C23.094,30,24,29.094,24,27.979V4.022C24,2.904,23.094,2,21.977,2ZM14.301,3.5H17.697C17.863,3.5,18,3.724,18,4S17.863,4.5,17.697,4.5H14.300999999999998C14.133,4.5,14,4.273,14,4C14,3.721,14.133,3.5,14.301,3.5ZM12.5,3.5C12.777,3.5,13,3.724,13,4C13,4.274,12.777,4.5,12.5,4.5S12,4.276,12,4C12,3.723,12.223,3.5,12.5,3.5ZM16,28.5C15.172,28.5,14.5,27.828,14.5,27.002C14.5,26.166,15.172,25.5,16,25.5S17.5,26.174,17.5,27.002C17.5,27.828,16.828,28.5,16,28.5ZM22,24H10V6H22V24Z" stroke-width="0" transform="matrix(0.875,0,0,0.875,0,0)" style="-webkit-tap-highlight-color: rgba(0, 0, 0, 0);"></path></svg>