<svg height="28" version="1.1" width="28" xmlns="http://www.w3.org/2000/svg" style="overflow: hidden; position: relative; left: -0.743072px; top: -2.6491e-07px;" id="canvas-for-livicon-4"><desc style="-webkit-tap-highlight-color: rgba(0, 0, 0, 0);"></desc><defs style="-webkit-tap-highlight-color: rgba(0, 0, 0, 0);"></defs><path fill="#ffffff" stroke="none" d="M12,10.21C11.021,10.21,10.228,11.003,10.228,11.982000000000001C10.228,12.961,11.020999999999999,13.753,12,13.753C12.979,13.753,13.772,12.96,13.772,11.982C13.772,11.003,12.979,10.21,12,10.21ZM21.001,12.896V11.067L18.448,10.24C18.298000000000002,9.683,18.059,9.167,17.78,8.677L19.009,6.263L17.717,4.971L15.320999999999998,6.195C14.829999999999998,5.9110000000000005,14.299999999999997,5.687,13.740999999999998,5.533L12.912999999999998,2.982L11.083999999999998,2.982L10.250999999999998,5.553000000000001C9.698999999999998,5.703000000000001,9.176999999999998,5.925000000000001,8.689999999999998,6.2010000000000005L6.279999999999998,4.972L4.99,6.264L6.213,8.66C5.929,9.15,5.705,9.68,5.553,10.241L3.001,11.068V12.897L5.553,13.725C5.703,14.282,5.941,14.798,6.221,15.286999999999999L4.99,17.698L6.282,18.992L8.678,17.767C9.169,18.05,9.699000000000002,18.275,10.257000000000001,18.428L11.085,20.981H12.915000000000001L13.743,18.426000000000002C14.299,18.277,14.814,18.038,15.303,17.759L17.718,18.989L19.012,17.697L17.787,15.302999999999999C18.070999999999998,14.811,18.296,14.282,18.45,13.722L21.001,12.896ZM14.672,14.864C14.672,14.864,14.133000000000001,14.295000000000002,14.109,14.315000000000001C13.535,14.833000000000002,12.779,15.150000000000002,11.966000000000001,15.150000000000002C10.229000000000001,15.150000000000002,8.82,13.696000000000002,8.82,11.959000000000003C8.82,10.221000000000004,10.229000000000001,8.812000000000003,11.966000000000001,8.812000000000003C13.704,8.812000000000003,15.211000000000002,10.221000000000004,15.178,11.959000000000003C15.163,12.754000000000003,14.952,13.176000000000004,14.600000000000001,13.739000000000003C14.579,13.772000000000002,15.232000000000001,14.231000000000002,15.232000000000001,14.231000000000002L14.672,14.864Z" stroke-width="0" transform="matrix(0.875,0,0,0.875,0,0)" style="-webkit-tap-highlight-color: rgba(0, 0, 0, 0);"></path><path fill="#ffffff" stroke="none" d="M23.161,20.885C22.557000000000002,20.808,22.004,21.231,21.925,21.837000000000003C21.846,22.438000000000002,22.273,22.993000000000002,22.877000000000002,23.070000000000004C23.480000000000004,23.149000000000004,24.033,22.722000000000005,24.111000000000004,22.121000000000002C24.19,21.515,23.765,20.964,23.161,20.885ZM27.052,21.007C26.948,20.579,26.776,20.177000000000003,26.551,19.809L27.296999999999997,17.699L26.031,16.732000000000003L24.204,17.994000000000003C23.995,17.931000000000004,23.779,17.885,23.556,17.855000000000004C23.333000000000002,17.826000000000004,23.113,17.816000000000003,22.896,17.823000000000004L21.452,16.135000000000005L19.981,16.745000000000005L20.161,18.977000000000004C19.849,19.275000000000002,19.580000000000002,19.620000000000005,19.371000000000002,20.005000000000003L17.175,20.414L16.968,21.993000000000002L18.987000000000002,22.950000000000003C19.091,23.378000000000004,19.263,23.78,19.488000000000003,24.149000000000004L18.742000000000004,26.256000000000004L20.008000000000003,27.224000000000004L21.836000000000002,25.962000000000003C22.045,26.024000000000004,22.261000000000003,26.070000000000004,22.483,26.100000000000005C22.702,26.128000000000004,22.917,26.124000000000006,23.13,26.120000000000005L24.587,27.824000000000005L26.057,27.211000000000006L25.878,24.973000000000006C26.188,24.678000000000004,26.45,24.333000000000006,26.661,23.954000000000008L28.866,23.543000000000006L29.07,21.963000000000008L27.052,21.007ZM24.981,22.219C24.829,23.248,24.061,24.089000000000002,22.743000000000002,23.929000000000002C21.67,23.8,20.919,22.783,21.058000000000003,21.708000000000002C21.198000000000004,20.636000000000003,22.181000000000004,19.883000000000003,23.252000000000002,20.021C24.325,20.161,25.141,21.15,24.981,22.219Z" stroke-width="0" transform="matrix(-0.875,0,0,-0.875,40.25,38.5)" style="-webkit-tap-highlight-color: rgba(0, 0, 0, 0);"></path></svg>