<svg height="48" version="1.1" width="48" xmlns="http://www.w3.org/2000/svg" style="overflow: hidden; position: relative; left: -0.125px;" id="canvas-for-livicon-15"><desc style="-webkit-tap-highlight-color: rgba(0, 0, 0, 0);"></desc><defs style="-webkit-tap-highlight-color: rgba(0, 0, 0, 0);"></defs><path fill="#ffffff" stroke="none" d="M29.05,22C29.05,22.582,28.583000000000002,23.05,28,23.05C27.42,23.05,26.95,22.580000000000002,26.95,22S27.419999999999998,20.95,28,20.95C28.583,20.95,29.05,21.42,29.05,22ZM5.997,29H4L4.041,30.801C4.041,31.463,4.577,32,5.239,32H28.802C29.464,32,30,31.463,30,30.801V13.199C30,12.537,29.464,12,28.803,12H23V14H26L26.006,30H5.997V29Z" opacity="1" stroke-width="0" transform="matrix(1.5,0,0,1.5,0,0)" style="-webkit-tap-highlight-color: rgba(0, 0, 0, 0); opacity: 1;"></path><path fill="#ffffff" stroke="none" d="M2,3.2V26.801C2,27.463,2.537,28,3.2,28H20.801C21.463,28,22,27.463,22,26.801V3.2C22,2.537,21.463,2,20.801,2H3.2C2.537,2,2,2.537,2,3.2ZM12,27.05C11.419,27.05,10.95,26.583000000000002,10.95,26C10.95,25.42,11.421,24.95,12,24.95S13.05,25.419999999999998,13.05,26C13.05,26.583,12.579,27.05,12,27.05ZM20,24H4V4H20V24Z" transform="matrix(1.5,0,0,1.5,0,0)" stroke-width="0" style="-webkit-tap-highlight-color: rgba(0, 0, 0, 0);"></path><path fill="#ffffff" stroke="none" d="M18,10H6V8H18V10ZM18,12H6V14H18V12ZM18,16H6V18H18V16Z" transform="matrix(1.5,0,0,1.5,0,0)" stroke-width="0" opacity="0" style="-webkit-tap-highlight-color: rgba(0, 0, 0, 0); opacity: 0;"></path></svg>