<svg height="48" version="1.1" width="48" xmlns="http://www.w3.org/2000/svg" style="overflow: hidden; position: relative;" id="canvas-for-livicon-11"><desc style="-webkit-tap-highlight-color: rgba(0, 0, 0, 0);"></desc><defs style="-webkit-tap-highlight-color: rgba(0, 0, 0, 0);"></defs><path fill="#ffffff" stroke="none" d="M2,10V26H30V10H2ZM29,25H3V11H29V25ZM4,12V24H28V12H4ZM27,22H26V23H6V22H5V14H6V13H26V14H27V22ZM24,19H22V17H24V19ZM10,19H8V17H10V19ZM19,18C19,20.209,17.657,22,16,22C14.343,22,13,20.209,13,18S14.343,14,16,14C17.657,14,19,15.791,19,18Z" opacity="0" transform="matrix(1.5,0,0,1.5,0,0)" stroke-width="0" style="-webkit-tap-highlight-color: rgba(0, 0, 0, 0); opacity: 0;"></path><path fill="#ffffff" stroke="none" d="M29,9H3V8H29V9ZM28,7H4V6H28V7ZM2,10V26H30V10H2ZM29,25H3V11H29V25ZM4,12V24H28V12H4ZM27,22H26V23H6V22H5V14H6V13H26V14H27V22ZM9.7,19H8.3C8.134,19,8,18.866,8,18.7V17.3C8,17.134,8.134,17,8.3,17H9.7C9.866,17,10,17.134,10,17.3V18.7C10,18.866,9.866,19,9.7,19ZM23.7,19H22.3C22.134,19,22,18.866,22,18.7V17.3C22,17.134,22.134,17,22.3,17H23.7C23.866,17,24,17.134,24,17.3V18.7C24,18.866,23.866,19,23.7,19ZM16.941,19.078C16.941,19.279,16.894,19.602,16.246,19.665V18.52C16.709,18.683,16.941,18.87,16.941,19.078ZM15.101,16.923C15.101,17.159999999999997,15.314,17.328,15.742,17.427999999999997V16.363999999999997C15.198,16.411,15.101,16.742,15.101,16.923ZM19,18C19,20.209,17.657,22,16,22S13,20.209,13,18S14.343,14,16,14S19,15.791,19,18ZM17.929,18.955C17.942,18.709999999999997,17.692999999999998,18.104999999999997,17.369,17.918999999999997C17.111,17.772,16.594,17.606999999999996,16.292,17.551V16.391C16.594,16.410999999999998,16.695,16.608999999999998,16.782,16.758999999999997C16.864,16.949999999999996,17.011,17.045999999999996,17.219,17.045999999999996H17.765C17.747,16.581999999999997,17.494,15.710999999999995,16.292,15.585999999999995L16.295,15.012999999999995C16.295,15.012999999999995,15.938000000000002,14.999999999999995,15.801000000000002,14.999999999999995H15.787000000000003V15.585999999999995C14.498000000000003,15.610999999999995,14.247000000000003,16.513999999999996,14.232000000000003,16.977999999999994C14.200000000000003,17.907999999999994,14.598000000000003,18.105999999999995,15.742000000000003,18.406999999999993V19.602999999999994C15.586000000000002,19.575999999999993,15.143000000000002,19.502999999999993,15.091000000000003,18.914999999999996H14.163000000000002C14.199000000000002,19.426999999999996,14.643000000000002,20.501999999999995,15.742000000000003,20.501999999999995V21H16.241000000000003V20.501C17.493,20.501,17.893,19.603,17.929,18.955Z" stroke-width="0" transform="matrix(1.5,0,0,1.5,0,0)" style="-webkit-tap-highlight-color: rgba(0, 0, 0, 0);"></path></svg>