<svg height="48" version="1.1" width="48" xmlns="http://www.w3.org/2000/svg" style="overflow: hidden; position: relative; left: -0.25px;" id="canvas-for-livicon-16"><desc style="-webkit-tap-highlight-color: rgba(0, 0, 0, 0);"></desc><defs style="-webkit-tap-highlight-color: rgba(0, 0, 0, 0);"></defs><path fill="#ffffff" stroke="none" d="M5,28H4C4,28,2,28.031,2,26V10C2,10,1.971,8,4,8L5,8.002V28ZM29.997,26V10C29.997,7.907,28,8,28,8H27V28H27.997C30.153,28,29.997,26,29.997,26ZM26,8.001V28H6V8L10,8V6C10,6,10,4,12,4H20.031C20.031,4,22.032999999999998,4.031,22,6V8L26,8.001ZM12,8H20V7C20,7,20.063,6,19,6H13C13,6,12,5.9,12,7V8ZM23,16H18V11H14V16H9V20H14V25H18V20H23V16Z" stroke-width="0" transform="matrix(1.5,0,0,1.5,0,0)" opacity="1" style="-webkit-tap-highlight-color: rgba(0, 0, 0, 0); opacity: 1;"></path></svg>