<svg height="32" version="1.1" width="32" xmlns="http://www.w3.org/2000/svg" style="overflow: hidden; position: relative; left: -0.312512px; top: 0.507026px;" id="canvas-for-livicon-78"><desc style="-webkit-tap-highlight-color: rgba(0, 0, 0, 0);"></desc><defs style="-webkit-tap-highlight-color: rgba(0, 0, 0, 0);"></defs><path fill="#ffffff" stroke="none" d="M27.938,8.002L22,8V6C22.033,4.031,20.031,4,20.031,4H12C10,4,10,6,10,6V8L4,8.002C1.971,8.002,2,10,2,10V14.907C2,14.907,9.615,17.5,16,17.5C22.977,17.5,30,14.875,30,14.875V10C30,7.906,27.938,8.002,27.938,8.002ZM18,16H14V15C14,14.448,14.448,14,15,14H17C17.555,14,18,14.448,18,15V16ZM20,7V8H12V7C12,5.9,13,6,13,6H19C20.063,6,20,7,20,7Z" stroke-width="0" transform="matrix(1,0,0,1,0,0)" style="-webkit-tap-highlight-color: rgba(0, 0, 0, 0);"></path><path fill="#ffffff" stroke="none" d="M26,27H3V11H26V27Z" transform="matrix(1,0,0,1,4,-2)" opacity="0" stroke-width="0" style="-webkit-tap-highlight-color: rgba(0, 0, 0, 0); opacity: 0;"></path><path fill="#ffffff" stroke="none" d="M26,27H3V11H26V27Z" transform="matrix(1,0,0,1,2,-1)" opacity="0" stroke-width="0" style="-webkit-tap-highlight-color: rgba(0, 0, 0, 0); opacity: 0;"></path><path fill="#ffffff" stroke="none" d="M26,27H3V11H26V27Z" opacity="0" stroke-width="0" transform="matrix(1,0,0,1,0,0)" style="-webkit-tap-highlight-color: rgba(0, 0, 0, 0); opacity: 0;"></path><path fill="#ffffff" stroke="none" d="M30,26V16C30,16,24.595,18.5,16,18.5C8.098,18.5,2,16,2,16V26C2,28.031,4,28,4,28L28,27.999C30.156,28,30,26,30,26ZM18,21C17.983,21.552,17.552,22,17,22H15C14.448,22,14,21.552,14,21V20H18V21Z" stroke-width="0" transform="matrix(1,0,0,1,0,0)" style="-webkit-tap-highlight-color: rgba(0, 0, 0, 0);"></path></svg>