<svg height="14" version="1.1" width="14" xmlns="http://www.w3.org/2000/svg" style="overflow: hidden; position: relative; left: -0.333333px;" id="canvas-for-livicon-29"><desc style="-webkit-tap-highlight-color: rgba(0, 0, 0, 0);"></desc><defs style="-webkit-tap-highlight-color: rgba(0, 0, 0, 0);"></defs><path fill="#707980" stroke="none" d="M13.079,2H2.971C2.419,1.988,1.985,2.425,2,2.978L2,13.113999999999999C2.015,13.665999999999999,2.3449999999999998,14.43,2.735,14.821C5.587,17.674,12.642999999999999,24.569,15.495,27.416C16.275,28.197,17.543,28.197,18.325,27.416L27.516,18.227C28.293,17.446,28.296999999999997,16.177,27.516,15.395C24.648999999999997,12.526,17.654999999999998,5.596,14.785999999999998,2.728999999999999C14.396,2.338,13.632,2.012,13.079,2ZM8.288,8.255C7.311,9.232000000000001,5.729,9.232000000000001,4.752000000000001,8.255C3.775000000000001,7.2780000000000005,3.775000000000001,5.696000000000001,4.752000000000001,4.720000000000001S7.312000000000001,3.7430000000000008,8.288,4.720000000000001S9.264,7.279,8.288,8.255Z" stroke-width="0" transform="matrix(0.4375,0,0,0.4375,0,0)" style="-webkit-tap-highlight-color: rgba(0, 0, 0, 0);"></path></svg>