<?xml version="1.0" encoding="utf-8"?>
<!-- Svg Vector Icons : http://www.onlinewebfonts.com/icon -->
<!DOCTYPE svg PUBLIC "-//W3C//DTD SVG 1.1//EN" "http://www.w3.org/Graphics/SVG/1.1/DTD/svg11.dtd">
<svg version="1.1" xmlns="http://www.w3.org/2000/svg" xmlns:xlink="http://www.w3.org/1999/xlink" x="0px" y="0px" viewBox="0 0 1000 1000" enable-background="new 0 0 1000 1000" xml:space="preserve">
<metadata> Svg Vector Icons : http://www.onlinewebfonts.com/icon </metadata>
<g><g><path d="M988.6,900.1l-30.3-170.2c-8.1-45.6-51.4-90.4-96.7-99.9l-178.8-37.8c-8.1-9.5-16.5-17.2-25.5-23.2c-0.8-8.8-0.2-15.3,2.3-20.7c9.1-20,16-38.5,21.1-56.6c11.9-5.1,18.5-15,21-19c4.3-6.3,7.7-13.2,10.7-20.2c8-19,11.6-37.7,15.6-57.4c1.5-7.6,3.9-15.1,6.6-23.6l4.2-13.7c4.7-16.2,2-32.6-7.3-45c-1.9-2.4-3.9-4.7-6.1-6.7c10.1-52.6,4.6-103.1-16.3-149.8C682,95.5,638.6,56.5,580.1,40.2c-21.5-6-43.7-10.5-66.1-13.2l-0.1-8.1l-7-0.3c-12.9-0.7-25.7-0.9-38.7-0.9L454,17.8c-8.2,0.1-16.6,1-25.2,2.6l-8.9-13.1l-34.6,22.4c-6.7,4.2-13.5,8.5-19.9,13.2c-8.9,6.5-16,14.3-21.2,23.2c-18,4.7-34.6,13.7-50.6,27.5c-2.2,2-4.3,4.1-7,7.3l-19.4,23.7l6.9,6.9c-6.7,15.2-8.5,29.8-5.3,39.7c-9.3,42.8-7.9,86.5,4.7,137.3c-7.2,7-11.7,16.4-13.2,27.8c-2.2,16.1-3.5,37.2,6.5,58.3c4.6,9.7,7.5,19.8,11.2,32.4l2.1,7.1c2.6,8.6,5.9,17,9.6,25.3c3.1,6.8,7.3,13.3,12.4,19.4c4.3,5,9.1,9,14.3,11.9c5.3,19.4,12.9,37.7,22.5,54.6c-0.2,9.1-0.6,18-0.9,27.1l-0.2,5.7c-6.4,4.1-12,8.9-17.1,13.2l-182.2,38.4c-45.3,9.5-88.7,54.2-96.7,99.9L11.4,900c-4.3,24.3,1.5,47.5,16.3,65.4c14.9,17.7,36.7,27.4,61.4,27.4h821.7c24.7,0,46.5-9.8,61.3-27.4C987.1,947.6,993,924.4,988.6,900.1z M336.3,629.1l7.2-1.7l-0.6-3.2c6.4-5.6,13.9-10.1,20.5-14c1.1-0.7,2.1-1.4,4.1-3.1c6.1-3.2,9.3-8,9.7-18.1l0.5-10.4c0.5-11.6,0.9-23,1.1-34.4c0.1-4.5-1.2-9.6-3.5-13.9c-12.2-22.5-20.2-44.6-25.5-70.7l-7.2,2.2l6.9-2.7l-5.2-7.5l-7.6,4.7c-0.5,0-1.7-0.3-4.2-3.2c-2.7-3.2-5-6.6-6.5-10.1c-3-6.6-5.7-13.2-7.7-20.1l-2-6.9c-3.7-12.7-7.5-25.7-13.5-38.3c-5.4-11.4-4.6-24.5-3-35.8c0.6-4.5,0.9-6.8,13.1-7.8l9.2-0.8l-2.7-8.8c-19.4-63.5-21.7-113.1-7.4-160.7l-4.7-1.7c-0.1-8.9,6.3-24.1,20.1-38.3l-2.7-3.9c12.7-9.8,25.7-15.3,39.6-16.8c4.3-0.5,9.9-3.9,11.2-8.9c2.1-7.6,6.5-13.8,13.5-19c5.3-3.9,10.7-7.3,16.2-10.8l2.5,3.6c16.2-6.2,31-9.5,44.9-10l4.2,5.6l7.3,0.1c35.6,0.5,70.9,5.5,104.9,15.1c47.2,13.2,81,43.9,103.3,93.8c20.4,45.7,23.3,93.4,8.9,146l-1.6,5.5l-1.3,7l6.8,2.2l6.7,0.4c2.3,0,5.6,0.6,7.5,3.1c1.7,2.3,2,5.8,0.8,9.9l-3.9,12.8c-2.9,9.2-5.8,18.4-8,29.5c-3.3,16.9-6.4,32.8-12.8,47.9c-2,4.7-4.4,9.5-7.2,13.7c-2.3,3.5-3.4,4.2-3.3,4.3c-0.3-0.1-1.7-0.4-5.6-3.1l-9.3-6.5l-3.3,16.5c-4.6,21.9-12.4,44.7-23.8,69.8c-9.1,19.9-6.5,41-1.6,60.1l3.5,4.7l2.2,1c6.1,3,11.9,7.2,18.5,13.7c3.3,3.1,6.5,6.3,9.4,9.9c0.8,0.9,1.6,1.8,2.8,3.1l-0.3,3.5l16.4,3.5c-5.1,5.5-10.1,10.5-15.4,15.2c-10.4,9.4-22.3,18.1-35.2,26c-15.9,9.8-33.1,17.7-50.9,23.3c-24.3,7.9-48.7,11.9-72.5,11.9c-27.9,0-55.6-5-82.3-14.8c-17.4-6.5-34.1-15-49.5-25.3c-7.9-5.5-15.6-11.2-22.8-17.4c-6.5-5.6-12.9-11.9-19.4-19L336.3,629.1z M941.6,939.7c-7.1,8.5-18,13.2-30.7,13.2H753.6v-90.5c0-11-8.9-19.9-20-19.9c-11.1,0-20,8.9-20,19.9v90.5H286.4v-90.5c0-11-9-19.9-20-19.9c-11,0-20,8.9-20,19.9v90.5H89.1c-12.7,0-23.6-4.7-30.7-13.2c-7.1-8.5-9.8-20.1-7.6-32.6l30.3-170.3c5.3-29.8,35.9-61.4,65.6-67.7l134.6-28.4c8.8,11.3,19,22,30.8,32.9c13,11.9,26.7,22.5,40.8,31.4c44.7,27.9,95.5,42.6,147,42.6c47.5,0,95-12.8,137.5-37.2c20.2-11.6,39-25.6,55.7-42c9.6-9.3,17.9-18.5,25.3-27.9l134.8,28.5c29.6,6.3,60.2,37.9,65.5,67.7l30.2,170.3C951.4,919.7,948.7,931.2,941.6,939.7z"/></g><g></g><g></g><g></g><g></g><g></g><g></g><g></g><g></g><g></g><g></g><g></g><g></g><g></g><g></g><g></g></g>
</svg>