<svg height="32" version="1.1" width="32" xmlns="http://www.w3.org/2000/svg" style="overflow: hidden; position: relative; left: -0.479167px;" id="canvas-for-livicon-79"><desc style="-webkit-tap-highlight-color: rgba(0, 0, 0, 0);"></desc><defs style="-webkit-tap-highlight-color: rgba(0, 0, 0, 0);"></defs><path fill="#2b2a29" stroke="none" d="M10,8L10,8V6L10,6V8ZM10,10L10,10V12L10,12V10ZM10,14L10,14V16L10,16V14ZM10,18L10,18V20L10,20V18ZM10,22L10,22V24L10,24V22Z" stroke-width="0" transform="matrix(1,0,0,1,0,0)" style="-webkit-tap-highlight-color: rgba(0, 0, 0, 0);"></path><path fill="#2b2a29" stroke="none" d="M28,2H6.9C6.348000000000001,2,5.9,2.448,5.9,3V6H4.9C4.347,6,3.9000000000000004,6.447,3.9000000000000004,7S4.347,8,4.9,8H5.9V14H4.9C4.347,14,3.9000000000000004,14.447,3.9000000000000004,15C3.9000000000000004,15.552,4.347,16,4.9,16H5.9V22H4.9C4.347,22,3.9000000000000004,22.447,3.9000000000000004,23S4.347,24,4.9,24H5.9V27.1C6,30,6,30,8.7,30H28C28.553,30,29,29.553,29,29V3C29,2.448,28.553,2,28,2ZM26,28H9C8.448,28,8,27.553,8,27V5C8,4.448,8.448,4,9,4H25.9C26.453,4,27,4.548,27,5.1V27.1C27,27.652,26.553,28,26,28Z" opacity="0" stroke-width="0" transform="matrix(1,0,0,1,0,0)" style="-webkit-tap-highlight-color: rgba(0, 0, 0, 0); opacity: 0;"></path><path fill="#2b2a29" stroke="none" d="M4.9,6H6.9C7.453,6,7.9,6.447,7.9,7S7.453,8,6.9,8H4.9C4.347,8,3.9000000000000004,7.553,3.9000000000000004,7S4.348,6,4.9,6ZM3.9,15C3.9,15.552,4.3469999999999995,16,4.9,16H6.9C7.453,16,7.9,15.552,7.9,15C7.9,14.447,7.453,14,6.9,14H4.9C4.348,14,3.9,14.447,3.9,15ZM3.9,23C3.9,23.553,4.3469999999999995,24,4.9,24H6.9C7.453,24,7.9,23.553,7.9,23S7.453,22,6.9,22H4.9C4.348,22,3.9,22.447,3.9,23ZM29,4V29.063C29,30,28,30,28,30H8.838C6.7,30,5.9,27,5.9,27V25H7C9.063,25,8.9,23,8.9,23C8.94,20.9,7,20.9,7,20.9H5.9V17H7C8.875,17,8.9,15,8.9,15C8.9,13,7,13,7,13H5.9V9.1H7C8.9,9.1,8.9,7,8.9,7C8.9,4.9,7,4.9,7,4.9H5.9V3C5.9,2.3,6.300000000000001,2,7,2H24.9C25.453,2,25.9,2.447,25.9,3H28C29,3,29,4,29,4ZM10,18H24V8H10V18ZM27,4.2L26,3.9000000000000004V26C26,26.553,25.553,27,25,27H7.9C7.9,27.9,9,28,9,28H26C26.9,28,27,27,27,27V4.2ZM22,11.7V10.299999999999999C22,10.133999999999999,21.865,9.999999999999998,21.7,9.999999999999998H12.299999999999999C12.133999999999999,9.999999999999998,11.999999999999998,10.133999999999999,11.999999999999998,10.299999999999999V11.7C11.999999999999998,11.866,12.133999999999999,12,12.299999999999999,12H21.7C21.865,12,22,11.866,22,11.7ZM22,15.7V14.299999999999999C22,14.133999999999999,21.865,13.999999999999998,21.7,13.999999999999998H12.299999999999999C12.133999999999999,13.999999999999998,11.999999999999998,14.133999999999999,11.999999999999998,14.299999999999999V15.7C11.999999999999998,15.866,12.133999999999999,16,12.299999999999999,16H21.7C21.865,16,22,15.866,22,15.7Z" opacity="1" stroke-width="0" transform="matrix(1,0,0,1,0,0)" style="-webkit-tap-highlight-color: rgba(0, 0, 0, 0); opacity: 1;"></path></svg>